<?xml version="1.0" encoding="UTF-8"?>
<svg xmlns="http://www.w3.org/2000/svg" xmlns:xlink="http://www.w3.org/1999/xlink" width="2274.53" height="3302.74" viewBox="0 0 2274.53 3302.74">
<defs>
<clipPath id="clip-0">
<path clip-rule="nonzero" d="M 135 520 L 2204 520 L 2204 3232 L 135 3232 Z M 135 520 "/>
</clipPath>
<clipPath id="clip-1">
<path clip-rule="evenodd" d="M 649.765625 2744.871094 C 697.554688 2792.671875 624.535156 2843.101562 575.511719 2892.109375 C 624.5625 2941.148438 697.476562 2991.5 649.726562 3039.328125 C 601.960938 3087.160156 551.492188 3014.078125 502.519531 2965.128906 C 466.027344 3001.609375 425.828125 3054.460938 391.800781 3054.460938 C 346.28125 3054.460938 322.722656 2998.929688 355.316406 2966.308594 L 429.515625 2892.109375 C 380.53125 2843.121094 307.476562 2792.671875 355.265625 2744.871094 C 403.066406 2697.089844 453.511719 2770.109375 502.519531 2819.121094 C 551.507812 2770.128906 601.988281 2697.058594 649.765625 2744.871094 Z M 1072.179688 1961.949219 C 1121.160156 1912.941406 1194.210938 1862.480469 1146.421875 1814.699219 C 1098.601562 1766.898438 1048.128906 1839.96875 999.171875 1888.929688 C 950.214844 1839.96875 899.730469 1766.898438 851.929688 1814.699219 C 804.140625 1862.480469 877.171875 1912.941406 926.15625 1961.949219 L 851.929688 2036.171875 C 819.296875 2068.789062 842.90625 2124.289062 888.453125 2124.289062 C 922.453125 2124.289062 962.730469 2071.398438 999.171875 2034.941406 C 1048.179688 2083.980469 1098.601562 2156.96875 1146.421875 2109.171875 C 1194.210938 2061.359375 1121.160156 2010.929688 1072.179688 1961.949219 Z M 589.789062 1820.71875 C 589.789062 1849.238281 566.6875 1872.359375 538.148438 1872.359375 C 509.625 1872.359375 486.527344 1849.238281 486.527344 1820.71875 L 486.527344 1052.640625 C 486.527344 1024.121094 509.625 1001.03125 538.148438 1001.03125 L 1275.5 1001.03125 C 1304.019531 1001.03125 1327.140625 1024.121094 1327.140625 1052.640625 L 1327.140625 1436.941406 L 1450.140625 1281.710938 C 1492.109375 1228.710938 1573.011719 1292.898438 1531.089844 1345.808594 C 1499.828125 1385.28125 1321.410156 1620 1298.640625 1631.320312 C 1276.308594 1642.429688 1249.601562 1636.339844 1233.839844 1615.671875 L 1019.980469 1345.808594 C 977.910156 1292.761719 1058.890625 1228.628906 1100.910156 1281.710938 L 1223.859375 1436.859375 L 1223.859375 1104.28125 L 589.789062 1104.28125 Z M 292.636719 3231.75 L 2046.441406 3231.769531 C 2133.109375 3231.769531 2203.558594 3161.28125 2203.558594 3074.628906 L 2203.558594 677.609375 C 2203.558594 590.980469 2133.089844 520.488281 2046.441406 520.488281 L 1722.351562 520.488281 C 1739.609375 549.148438 1818.738281 667.46875 1818.738281 694.011719 C 1818.769531 724.378906 1791.691406 747.378906 1766.578125 745.601562 L 572.453125 745.601562 C 532.386719 745.601562 507.5625 701.660156 528.210938 667.351562 L 616.632812 520.488281 L 292.636719 520.488281 C 206 520.488281 135.515625 590.988281 135.515625 677.609375 L 135.515625 3074.628906 C 135.515625 3161.28125 206.011719 3231.75 292.636719 3231.75 Z M 1801.089844 2103.179688 L 1801.089844 2871.25 C 1801.089844 2899.78125 1777.980469 2922.871094 1749.480469 2922.871094 L 1012.101562 2922.871094 C 983.585938 2922.871094 960.472656 2899.75 960.472656 2871.25 L 960.472656 2486.96875 L 837.484375 2642.140625 C 795.417969 2695.21875 714.535156 2631.078125 756.546875 2578.050781 L 971.121094 2307.308594 C 992.160156 2280.339844 1032.101562 2280.179688 1053.320312 2307.601562 L 1267.640625 2578.050781 C 1310.089844 2631.609375 1228.398438 2694.78125 1186.71875 2642.140625 L 1063.730469 2486.988281 L 1063.730469 2819.621094 L 1697.839844 2819.621094 L 1697.839844 2103.179688 C 1697.839844 2035.179688 1801.089844 2035.179688 1801.089844 2103.179688 Z M 1816.71875 1287.328125 C 1716.261719 1287.328125 1634.519531 1205.601562 1634.519531 1105.148438 C 1634.519531 1004.679688 1716.261719 922.941406 1816.71875 922.941406 C 1917.191406 922.941406 1998.921875 1004.679688 1998.921875 1105.148438 C 1998.921875 1205.601562 1917.191406 1287.328125 1816.71875 1287.328125 "/>
</clipPath>
<linearGradient id="linear-pattern-0" gradientUnits="userSpaceOnUse" x1="0" y1="0" x2="1.000002" y2="0" gradientTransform="matrix(2068.04, 0, 0, 2068.04, 135.516, 1876.13)">
<stop offset="0" stop-color="rgb(41.567993%, 35.68573%, 65.881348%)" stop-opacity="1"/>
<stop offset="0.015625" stop-color="rgb(41.438293%, 35.862732%, 66.00647%)" stop-opacity="1"/>
<stop offset="0.03125" stop-color="rgb(41.181946%, 36.218262%, 66.25824%)" stop-opacity="1"/>
<stop offset="0.046875" stop-color="rgb(40.924072%, 36.573792%, 66.508484%)" stop-opacity="1"/>
<stop offset="0.0625" stop-color="rgb(40.666199%, 36.929321%, 66.760254%)" stop-opacity="1"/>
<stop offset="0.078125" stop-color="rgb(40.409851%, 37.284851%, 67.012024%)" stop-opacity="1"/>
<stop offset="0.09375" stop-color="rgb(40.151978%, 37.638855%, 67.262268%)" stop-opacity="1"/>
<stop offset="0.109375" stop-color="rgb(39.894104%, 37.994385%, 67.514038%)" stop-opacity="1"/>
<stop offset="0.125" stop-color="rgb(39.637756%, 38.349915%, 67.765808%)" stop-opacity="1"/>
<stop offset="0.140625" stop-color="rgb(39.379883%, 38.705444%, 68.016052%)" stop-opacity="1"/>
<stop offset="0.15625" stop-color="rgb(39.122009%, 39.060974%, 68.267822%)" stop-opacity="1"/>
<stop offset="0.171875" stop-color="rgb(38.865662%, 39.416504%, 68.519592%)" stop-opacity="1"/>
<stop offset="0.1875" stop-color="rgb(38.607788%, 39.772034%, 68.769836%)" stop-opacity="1"/>
<stop offset="0.203125" stop-color="rgb(38.349915%, 40.127563%, 69.021606%)" stop-opacity="1"/>
<stop offset="0.21875" stop-color="rgb(38.093567%, 40.483093%, 69.273376%)" stop-opacity="1"/>
<stop offset="0.234375" stop-color="rgb(37.835693%, 40.838623%, 69.523621%)" stop-opacity="1"/>
<stop offset="0.25" stop-color="rgb(37.57782%, 41.194153%, 69.775391%)" stop-opacity="1"/>
<stop offset="0.265625" stop-color="rgb(37.321472%, 41.548157%, 70.025635%)" stop-opacity="1"/>
<stop offset="0.28125" stop-color="rgb(37.063599%, 41.903687%, 70.277405%)" stop-opacity="1"/>
<stop offset="0.296875" stop-color="rgb(36.805725%, 42.259216%, 70.529175%)" stop-opacity="1"/>
<stop offset="0.3125" stop-color="rgb(36.549377%, 42.614746%, 70.779419%)" stop-opacity="1"/>
<stop offset="0.328125" stop-color="rgb(36.291504%, 42.970276%, 71.031189%)" stop-opacity="1"/>
<stop offset="0.34375" stop-color="rgb(36.03363%, 43.325806%, 71.282959%)" stop-opacity="1"/>
<stop offset="0.359375" stop-color="rgb(35.777283%, 43.681335%, 71.533203%)" stop-opacity="1"/>
<stop offset="0.375" stop-color="rgb(35.519409%, 44.036865%, 71.784973%)" stop-opacity="1"/>
<stop offset="0.390625" stop-color="rgb(35.261536%, 44.392395%, 72.036743%)" stop-opacity="1"/>
<stop offset="0.40625" stop-color="rgb(35.005188%, 44.747925%, 72.286987%)" stop-opacity="1"/>
<stop offset="0.421875" stop-color="rgb(34.747314%, 45.103455%, 72.538757%)" stop-opacity="1"/>
<stop offset="0.4375" stop-color="rgb(34.489441%, 45.457458%, 72.790527%)" stop-opacity="1"/>
<stop offset="0.453125" stop-color="rgb(34.233093%, 45.812988%, 73.040771%)" stop-opacity="1"/>
<stop offset="0.46875" stop-color="rgb(33.97522%, 46.168518%, 73.292542%)" stop-opacity="1"/>
<stop offset="0.484375" stop-color="rgb(33.717346%, 46.524048%, 73.542786%)" stop-opacity="1"/>
<stop offset="0.5" stop-color="rgb(33.460999%, 46.879578%, 73.794556%)" stop-opacity="1"/>
<stop offset="0.515625" stop-color="rgb(33.203125%, 47.235107%, 74.046326%)" stop-opacity="1"/>
<stop offset="0.53125" stop-color="rgb(32.945251%, 47.590637%, 74.29657%)" stop-opacity="1"/>
<stop offset="0.546875" stop-color="rgb(32.688904%, 47.946167%, 74.54834%)" stop-opacity="1"/>
<stop offset="0.5625" stop-color="rgb(32.43103%, 48.301697%, 74.80011%)" stop-opacity="1"/>
<stop offset="0.578125" stop-color="rgb(32.174683%, 48.657227%, 75.050354%)" stop-opacity="1"/>
<stop offset="0.59375" stop-color="rgb(31.916809%, 49.012756%, 75.302124%)" stop-opacity="1"/>
<stop offset="0.609375" stop-color="rgb(31.658936%, 49.36676%, 75.553894%)" stop-opacity="1"/>
<stop offset="0.625" stop-color="rgb(31.402588%, 49.72229%, 75.804138%)" stop-opacity="1"/>
<stop offset="0.640625" stop-color="rgb(31.144714%, 50.07782%, 76.055908%)" stop-opacity="1"/>
<stop offset="0.65625" stop-color="rgb(30.886841%, 50.43335%, 76.307678%)" stop-opacity="1"/>
<stop offset="0.671875" stop-color="rgb(30.630493%, 50.788879%, 76.557922%)" stop-opacity="1"/>
<stop offset="0.6875" stop-color="rgb(30.37262%, 51.144409%, 76.809692%)" stop-opacity="1"/>
<stop offset="0.703125" stop-color="rgb(30.114746%, 51.499939%, 77.059937%)" stop-opacity="1"/>
<stop offset="0.71875" stop-color="rgb(29.858398%, 51.855469%, 77.311707%)" stop-opacity="1"/>
<stop offset="0.734375" stop-color="rgb(29.600525%, 52.210999%, 77.563477%)" stop-opacity="1"/>
<stop offset="0.75" stop-color="rgb(29.342651%, 52.566528%, 77.813721%)" stop-opacity="1"/>
<stop offset="0.765625" stop-color="rgb(29.086304%, 52.922058%, 78.065491%)" stop-opacity="1"/>
<stop offset="0.78125" stop-color="rgb(28.82843%, 53.276062%, 78.317261%)" stop-opacity="1"/>
<stop offset="0.796875" stop-color="rgb(28.570557%, 53.631592%, 78.567505%)" stop-opacity="1"/>
<stop offset="0.8125" stop-color="rgb(28.314209%, 53.987122%, 78.819275%)" stop-opacity="1"/>
<stop offset="0.828125" stop-color="rgb(28.056335%, 54.342651%, 79.071045%)" stop-opacity="1"/>
<stop offset="0.84375" stop-color="rgb(27.798462%, 54.698181%, 79.321289%)" stop-opacity="1"/>
<stop offset="0.859375" stop-color="rgb(27.542114%, 55.053711%, 79.573059%)" stop-opacity="1"/>
<stop offset="0.875" stop-color="rgb(27.284241%, 55.409241%, 79.824829%)" stop-opacity="1"/>
<stop offset="0.890625" stop-color="rgb(27.026367%, 55.764771%, 80.075073%)" stop-opacity="1"/>
<stop offset="0.90625" stop-color="rgb(26.77002%, 56.1203%, 80.326843%)" stop-opacity="1"/>
<stop offset="0.921875" stop-color="rgb(26.512146%, 56.47583%, 80.577087%)" stop-opacity="1"/>
<stop offset="0.9375" stop-color="rgb(26.254272%, 56.83136%, 80.828857%)" stop-opacity="1"/>
<stop offset="0.953125" stop-color="rgb(25.997925%, 57.185364%, 81.080627%)" stop-opacity="1"/>
<stop offset="0.96875" stop-color="rgb(25.740051%, 57.540894%, 81.330872%)" stop-opacity="1"/>
<stop offset="0.984375" stop-color="rgb(25.482178%, 57.896423%, 81.582642%)" stop-opacity="1"/>
<stop offset="1" stop-color="rgb(25.22583%, 58.251953%, 81.834412%)" stop-opacity="1"/>
</linearGradient>
<clipPath id="clip-2">
<path clip-rule="nonzero" d="M 663 134 L 1676 134 L 1676 643 L 663 643 Z M 663 134 "/>
</clipPath>
<clipPath id="clip-3">
<path clip-rule="evenodd" d="M 1211.378906 295.648438 C 1155.539062 295.648438 1076.058594 309.320312 1076.058594 244.019531 C 1076.058594 178.710938 1155.539062 192.398438 1211.378906 192.398438 C 1279.328125 192.398438 1279.359375 295.648438 1211.378906 295.648438 Z M 663.804688 642.351562 L 1675.230469 642.351562 L 1488.820312 332.71875 L 1368.078125 332.730469 C 1339.558594 332.730469 1316.449219 309.628906 1316.449219 281.109375 C 1316.449219 200.089844 1250.550781 134.171875 1169.539062 134.171875 C 1088.511719 134.171875 1022.589844 200.109375 1022.589844 281.109375 C 1022.589844 309.628906 999.488281 332.730469 970.964844 332.730469 L 850.210938 332.730469 L 752.949219 494.289062 L 663.804688 642.351562 "/>
</clipPath>
<linearGradient id="linear-pattern-1" gradientUnits="userSpaceOnUse" x1="0.151217" y1="0" x2="0.848714" y2="0" gradientTransform="matrix(1450.08, 0, 0, 1450.08, 444.527, 388.26)">
<stop offset="0" stop-color="rgb(39.077759%, 39.125061%, 68.313599%)" stop-opacity="1"/>
<stop offset="0.015625" stop-color="rgb(38.987732%, 39.248657%, 68.400574%)" stop-opacity="1"/>
<stop offset="0.03125" stop-color="rgb(38.807678%, 39.49585%, 68.574524%)" stop-opacity="1"/>
<stop offset="0.046875" stop-color="rgb(38.627625%, 39.744568%, 68.75%)" stop-opacity="1"/>
<stop offset="0.0625" stop-color="rgb(38.449097%, 39.99176%, 68.925476%)" stop-opacity="1"/>
<stop offset="0.078125" stop-color="rgb(38.269043%, 40.240479%, 69.100952%)" stop-opacity="1"/>
<stop offset="0.09375" stop-color="rgb(38.088989%, 40.487671%, 69.276428%)" stop-opacity="1"/>
<stop offset="0.109375" stop-color="rgb(37.910461%, 40.736389%, 69.451904%)" stop-opacity="1"/>
<stop offset="0.125" stop-color="rgb(37.730408%, 40.983582%, 69.625854%)" stop-opacity="1"/>
<stop offset="0.140625" stop-color="rgb(37.55188%, 41.2323%, 69.801331%)" stop-opacity="1"/>
<stop offset="0.15625" stop-color="rgb(37.371826%, 41.479492%, 69.976807%)" stop-opacity="1"/>
<stop offset="0.171875" stop-color="rgb(37.191772%, 41.726685%, 70.152283%)" stop-opacity="1"/>
<stop offset="0.1875" stop-color="rgb(37.013245%, 41.975403%, 70.327759%)" stop-opacity="1"/>
<stop offset="0.203125" stop-color="rgb(36.833191%, 42.222595%, 70.503235%)" stop-opacity="1"/>
<stop offset="0.21875" stop-color="rgb(36.653137%, 42.471313%, 70.677185%)" stop-opacity="1"/>
<stop offset="0.234375" stop-color="rgb(36.474609%, 42.718506%, 70.852661%)" stop-opacity="1"/>
<stop offset="0.25" stop-color="rgb(36.294556%, 42.967224%, 71.028137%)" stop-opacity="1"/>
<stop offset="0.265625" stop-color="rgb(36.114502%, 43.214417%, 71.203613%)" stop-opacity="1"/>
<stop offset="0.28125" stop-color="rgb(35.935974%, 43.463135%, 71.379089%)" stop-opacity="1"/>
<stop offset="0.296875" stop-color="rgb(35.75592%, 43.710327%, 71.554565%)" stop-opacity="1"/>
<stop offset="0.3125" stop-color="rgb(35.575867%, 43.959045%, 71.730042%)" stop-opacity="1"/>
<stop offset="0.328125" stop-color="rgb(35.397339%, 44.206238%, 71.903992%)" stop-opacity="1"/>
<stop offset="0.34375" stop-color="rgb(35.217285%, 44.45343%, 72.079468%)" stop-opacity="1"/>
<stop offset="0.359375" stop-color="rgb(35.038757%, 44.702148%, 72.254944%)" stop-opacity="1"/>
<stop offset="0.375" stop-color="rgb(34.858704%, 44.949341%, 72.43042%)" stop-opacity="1"/>
<stop offset="0.390625" stop-color="rgb(34.67865%, 45.198059%, 72.605896%)" stop-opacity="1"/>
<stop offset="0.40625" stop-color="rgb(34.500122%, 45.445251%, 72.781372%)" stop-opacity="1"/>
<stop offset="0.421875" stop-color="rgb(34.320068%, 45.69397%, 72.955322%)" stop-opacity="1"/>
<stop offset="0.4375" stop-color="rgb(34.140015%, 45.941162%, 73.130798%)" stop-opacity="1"/>
<stop offset="0.453125" stop-color="rgb(33.961487%, 46.18988%, 73.306274%)" stop-opacity="1"/>
<stop offset="0.46875" stop-color="rgb(33.781433%, 46.437073%, 73.48175%)" stop-opacity="1"/>
<stop offset="0.484375" stop-color="rgb(33.601379%, 46.685791%, 73.657227%)" stop-opacity="1"/>
<stop offset="0.5" stop-color="rgb(33.422852%, 46.932983%, 73.832703%)" stop-opacity="1"/>
<stop offset="0.515625" stop-color="rgb(33.242798%, 47.180176%, 74.006653%)" stop-opacity="1"/>
<stop offset="0.53125" stop-color="rgb(33.06427%, 47.428894%, 74.182129%)" stop-opacity="1"/>
<stop offset="0.546875" stop-color="rgb(32.884216%, 47.676086%, 74.357605%)" stop-opacity="1"/>
<stop offset="0.5625" stop-color="rgb(32.704163%, 47.924805%, 74.533081%)" stop-opacity="1"/>
<stop offset="0.578125" stop-color="rgb(32.525635%, 48.171997%, 74.708557%)" stop-opacity="1"/>
<stop offset="0.59375" stop-color="rgb(32.345581%, 48.420715%, 74.884033%)" stop-opacity="1"/>
<stop offset="0.609375" stop-color="rgb(32.165527%, 48.667908%, 75.057983%)" stop-opacity="1"/>
<stop offset="0.625" stop-color="rgb(31.987%, 48.916626%, 75.233459%)" stop-opacity="1"/>
<stop offset="0.640625" stop-color="rgb(31.806946%, 49.163818%, 75.408936%)" stop-opacity="1"/>
<stop offset="0.65625" stop-color="rgb(31.626892%, 49.412537%, 75.584412%)" stop-opacity="1"/>
<stop offset="0.671875" stop-color="rgb(31.448364%, 49.659729%, 75.759888%)" stop-opacity="1"/>
<stop offset="0.6875" stop-color="rgb(31.268311%, 49.906921%, 75.935364%)" stop-opacity="1"/>
<stop offset="0.703125" stop-color="rgb(31.089783%, 50.15564%, 76.109314%)" stop-opacity="1"/>
<stop offset="0.71875" stop-color="rgb(30.909729%, 50.402832%, 76.28479%)" stop-opacity="1"/>
<stop offset="0.734375" stop-color="rgb(30.729675%, 50.65155%, 76.460266%)" stop-opacity="1"/>
<stop offset="0.75" stop-color="rgb(30.551147%, 50.898743%, 76.635742%)" stop-opacity="1"/>
<stop offset="0.765625" stop-color="rgb(30.371094%, 51.147461%, 76.811218%)" stop-opacity="1"/>
<stop offset="0.78125" stop-color="rgb(30.19104%, 51.394653%, 76.986694%)" stop-opacity="1"/>
<stop offset="0.796875" stop-color="rgb(30.012512%, 51.643372%, 77.160645%)" stop-opacity="1"/>
<stop offset="0.8125" stop-color="rgb(29.832458%, 51.890564%, 77.336121%)" stop-opacity="1"/>
<stop offset="0.828125" stop-color="rgb(29.652405%, 52.139282%, 77.511597%)" stop-opacity="1"/>
<stop offset="0.84375" stop-color="rgb(29.473877%, 52.386475%, 77.687073%)" stop-opacity="1"/>
<stop offset="0.859375" stop-color="rgb(29.293823%, 52.633667%, 77.862549%)" stop-opacity="1"/>
<stop offset="0.875" stop-color="rgb(29.11377%, 52.882385%, 78.038025%)" stop-opacity="1"/>
<stop offset="0.890625" stop-color="rgb(28.935242%, 53.129578%, 78.213501%)" stop-opacity="1"/>
<stop offset="0.90625" stop-color="rgb(28.755188%, 53.378296%, 78.387451%)" stop-opacity="1"/>
<stop offset="0.921875" stop-color="rgb(28.57666%, 53.625488%, 78.562927%)" stop-opacity="1"/>
<stop offset="0.9375" stop-color="rgb(28.396606%, 53.874207%, 78.738403%)" stop-opacity="1"/>
<stop offset="0.953125" stop-color="rgb(28.216553%, 54.121399%, 78.913879%)" stop-opacity="1"/>
<stop offset="0.96875" stop-color="rgb(28.038025%, 54.370117%, 79.089355%)" stop-opacity="1"/>
<stop offset="0.984375" stop-color="rgb(27.857971%, 54.61731%, 79.264832%)" stop-opacity="1"/>
<stop offset="1" stop-color="rgb(27.677917%, 54.866028%, 79.438782%)" stop-opacity="1"/>
</linearGradient>
<clipPath id="clip-4">
<path clip-rule="nonzero" d="M 1738 1026 L 1895 1026 L 1895 1185 L 1738 1185 Z M 1738 1026 "/>
</clipPath>
<clipPath id="clip-5">
<path clip-rule="evenodd" d="M 1816.71875 1026.171875 C 1712.820312 1026.171875 1712.761719 1184.089844 1816.71875 1184.089844 C 1920.710938 1184.089844 1920.601562 1026.171875 1816.71875 1026.171875 "/>
</clipPath>
<linearGradient id="linear-pattern-2" gradientUnits="userSpaceOnUse" x1="-0.166759" y1="0" x2="1.166989" y2="0" gradientTransform="matrix(155.914, 0, 0, 155.914, 1738.76, 1105.13)">
<stop offset="0" stop-color="rgb(41.567993%, 35.68573%, 65.881348%)" stop-opacity="1"/>
<stop offset="0.125" stop-color="rgb(41.567993%, 35.68573%, 65.881348%)" stop-opacity="1"/>
<stop offset="0.132812" stop-color="rgb(41.482544%, 35.803223%, 65.965271%)" stop-opacity="1"/>
<stop offset="0.140625" stop-color="rgb(41.31012%, 36.039734%, 66.131592%)" stop-opacity="1"/>
<stop offset="0.148438" stop-color="rgb(41.139221%, 36.276245%, 66.299438%)" stop-opacity="1"/>
<stop offset="0.15625" stop-color="rgb(40.966797%, 36.514282%, 66.467285%)" stop-opacity="1"/>
<stop offset="0.164062" stop-color="rgb(40.795898%, 36.750793%, 66.635132%)" stop-opacity="1"/>
<stop offset="0.171875" stop-color="rgb(40.623474%, 36.987305%, 66.802979%)" stop-opacity="1"/>
<stop offset="0.179688" stop-color="rgb(40.452576%, 37.225342%, 66.969299%)" stop-opacity="1"/>
<stop offset="0.1875" stop-color="rgb(40.281677%, 37.461853%, 67.137146%)" stop-opacity="1"/>
<stop offset="0.195312" stop-color="rgb(40.109253%, 37.698364%, 67.304993%)" stop-opacity="1"/>
<stop offset="0.203125" stop-color="rgb(39.938354%, 37.934875%, 67.472839%)" stop-opacity="1"/>
<stop offset="0.210938" stop-color="rgb(39.76593%, 38.172913%, 67.640686%)" stop-opacity="1"/>
<stop offset="0.21875" stop-color="rgb(39.595032%, 38.409424%, 67.807007%)" stop-opacity="1"/>
<stop offset="0.226562" stop-color="rgb(39.422607%, 38.645935%, 67.974854%)" stop-opacity="1"/>
<stop offset="0.234375" stop-color="rgb(39.251709%, 38.883972%, 68.1427%)" stop-opacity="1"/>
<stop offset="0.242188" stop-color="rgb(39.079285%, 39.120483%, 68.310547%)" stop-opacity="1"/>
<stop offset="0.25" stop-color="rgb(38.908386%, 39.356995%, 68.478394%)" stop-opacity="1"/>
<stop offset="0.257812" stop-color="rgb(38.735962%, 39.595032%, 68.644714%)" stop-opacity="1"/>
<stop offset="0.265625" stop-color="rgb(38.565063%, 39.831543%, 68.812561%)" stop-opacity="1"/>
<stop offset="0.273438" stop-color="rgb(38.392639%, 40.068054%, 68.980408%)" stop-opacity="1"/>
<stop offset="0.28125" stop-color="rgb(38.221741%, 40.306091%, 69.148254%)" stop-opacity="1"/>
<stop offset="0.289062" stop-color="rgb(38.049316%, 40.542603%, 69.314575%)" stop-opacity="1"/>
<stop offset="0.296875" stop-color="rgb(37.878418%, 40.779114%, 69.482422%)" stop-opacity="1"/>
<stop offset="0.304688" stop-color="rgb(37.705994%, 41.017151%, 69.650269%)" stop-opacity="1"/>
<stop offset="0.3125" stop-color="rgb(37.535095%, 41.253662%, 69.818115%)" stop-opacity="1"/>
<stop offset="0.320312" stop-color="rgb(37.362671%, 41.490173%, 69.985962%)" stop-opacity="1"/>
<stop offset="0.328125" stop-color="rgb(37.191772%, 41.72821%, 70.152283%)" stop-opacity="1"/>
<stop offset="0.335938" stop-color="rgb(37.020874%, 41.964722%, 70.320129%)" stop-opacity="1"/>
<stop offset="0.34375" stop-color="rgb(36.84845%, 42.201233%, 70.487976%)" stop-opacity="1"/>
<stop offset="0.351562" stop-color="rgb(36.677551%, 42.43927%, 70.655823%)" stop-opacity="1"/>
<stop offset="0.359375" stop-color="rgb(36.505127%, 42.675781%, 70.823669%)" stop-opacity="1"/>
<stop offset="0.367188" stop-color="rgb(36.334229%, 42.912292%, 70.98999%)" stop-opacity="1"/>
<stop offset="0.375" stop-color="rgb(36.161804%, 43.15033%, 71.157837%)" stop-opacity="1"/>
<stop offset="0.382812" stop-color="rgb(35.990906%, 43.386841%, 71.325684%)" stop-opacity="1"/>
<stop offset="0.390625" stop-color="rgb(35.818481%, 43.623352%, 71.49353%)" stop-opacity="1"/>
<stop offset="0.398438" stop-color="rgb(35.647583%, 43.861389%, 71.661377%)" stop-opacity="1"/>
<stop offset="0.40625" stop-color="rgb(35.475159%, 44.0979%, 71.827698%)" stop-opacity="1"/>
<stop offset="0.414062" stop-color="rgb(35.30426%, 44.334412%, 71.995544%)" stop-opacity="1"/>
<stop offset="0.421875" stop-color="rgb(35.131836%, 44.570923%, 72.163391%)" stop-opacity="1"/>
<stop offset="0.429688" stop-color="rgb(34.960938%, 44.80896%, 72.331238%)" stop-opacity="1"/>
<stop offset="0.4375" stop-color="rgb(34.788513%, 45.045471%, 72.499084%)" stop-opacity="1"/>
<stop offset="0.445312" stop-color="rgb(34.617615%, 45.281982%, 72.665405%)" stop-opacity="1"/>
<stop offset="0.453125" stop-color="rgb(34.44519%, 45.52002%, 72.833252%)" stop-opacity="1"/>
<stop offset="0.460938" stop-color="rgb(34.274292%, 45.756531%, 73.001099%)" stop-opacity="1"/>
<stop offset="0.46875" stop-color="rgb(34.101868%, 45.993042%, 73.168945%)" stop-opacity="1"/>
<stop offset="0.476562" stop-color="rgb(33.930969%, 46.231079%, 73.336792%)" stop-opacity="1"/>
<stop offset="0.484375" stop-color="rgb(33.760071%, 46.46759%, 73.503113%)" stop-opacity="1"/>
<stop offset="0.492188" stop-color="rgb(33.587646%, 46.704102%, 73.670959%)" stop-opacity="1"/>
<stop offset="0.5" stop-color="rgb(33.416748%, 46.942139%, 73.838806%)" stop-opacity="1"/>
<stop offset="0.507812" stop-color="rgb(33.244324%, 47.17865%, 74.006653%)" stop-opacity="1"/>
<stop offset="0.515625" stop-color="rgb(33.073425%, 47.415161%, 74.1745%)" stop-opacity="1"/>
<stop offset="0.523438" stop-color="rgb(32.901001%, 47.653198%, 74.34082%)" stop-opacity="1"/>
<stop offset="0.53125" stop-color="rgb(32.730103%, 47.889709%, 74.508667%)" stop-opacity="1"/>
<stop offset="0.539062" stop-color="rgb(32.557678%, 48.126221%, 74.676514%)" stop-opacity="1"/>
<stop offset="0.546875" stop-color="rgb(32.38678%, 48.364258%, 74.84436%)" stop-opacity="1"/>
<stop offset="0.554688" stop-color="rgb(32.214355%, 48.600769%, 75.012207%)" stop-opacity="1"/>
<stop offset="0.5625" stop-color="rgb(32.043457%, 48.83728%, 75.178528%)" stop-opacity="1"/>
<stop offset="0.570312" stop-color="rgb(31.871033%, 49.075317%, 75.346375%)" stop-opacity="1"/>
<stop offset="0.578125" stop-color="rgb(31.700134%, 49.311829%, 75.514221%)" stop-opacity="1"/>
<stop offset="0.585938" stop-color="rgb(31.52771%, 49.54834%, 75.682068%)" stop-opacity="1"/>
<stop offset="0.59375" stop-color="rgb(31.356812%, 49.786377%, 75.849915%)" stop-opacity="1"/>
<stop offset="0.601562" stop-color="rgb(31.184387%, 50.022888%, 76.016235%)" stop-opacity="1"/>
<stop offset="0.609375" stop-color="rgb(31.013489%, 50.259399%, 76.184082%)" stop-opacity="1"/>
<stop offset="0.617188" stop-color="rgb(30.841064%, 50.497437%, 76.351929%)" stop-opacity="1"/>
<stop offset="0.625" stop-color="rgb(30.670166%, 50.733948%, 76.519775%)" stop-opacity="1"/>
<stop offset="0.632812" stop-color="rgb(30.499268%, 50.970459%, 76.687622%)" stop-opacity="1"/>
<stop offset="0.640625" stop-color="rgb(30.326843%, 51.20697%, 76.853943%)" stop-opacity="1"/>
<stop offset="0.648438" stop-color="rgb(30.155945%, 51.445007%, 77.02179%)" stop-opacity="1"/>
<stop offset="0.65625" stop-color="rgb(29.983521%, 51.681519%, 77.189636%)" stop-opacity="1"/>
<stop offset="0.664062" stop-color="rgb(29.812622%, 51.91803%, 77.357483%)" stop-opacity="1"/>
<stop offset="0.671875" stop-color="rgb(29.640198%, 52.156067%, 77.523804%)" stop-opacity="1"/>
<stop offset="0.679688" stop-color="rgb(29.469299%, 52.392578%, 77.69165%)" stop-opacity="1"/>
<stop offset="0.6875" stop-color="rgb(29.296875%, 52.629089%, 77.859497%)" stop-opacity="1"/>
<stop offset="0.695312" stop-color="rgb(29.125977%, 52.867126%, 78.027344%)" stop-opacity="1"/>
<stop offset="0.703125" stop-color="rgb(28.953552%, 53.103638%, 78.19519%)" stop-opacity="1"/>
<stop offset="0.710938" stop-color="rgb(28.782654%, 53.340149%, 78.361511%)" stop-opacity="1"/>
<stop offset="0.71875" stop-color="rgb(28.610229%, 53.578186%, 78.529358%)" stop-opacity="1"/>
<stop offset="0.726562" stop-color="rgb(28.439331%, 53.814697%, 78.697205%)" stop-opacity="1"/>
<stop offset="0.734375" stop-color="rgb(28.266907%, 54.051208%, 78.865051%)" stop-opacity="1"/>
<stop offset="0.742188" stop-color="rgb(28.096008%, 54.289246%, 79.032898%)" stop-opacity="1"/>
<stop offset="0.75" stop-color="rgb(27.923584%, 54.525757%, 79.199219%)" stop-opacity="1"/>
<stop offset="0.757812" stop-color="rgb(27.752686%, 54.762268%, 79.367065%)" stop-opacity="1"/>
<stop offset="0.765625" stop-color="rgb(27.580261%, 55.000305%, 79.534912%)" stop-opacity="1"/>
<stop offset="0.773438" stop-color="rgb(27.409363%, 55.236816%, 79.702759%)" stop-opacity="1"/>
<stop offset="0.78125" stop-color="rgb(27.236938%, 55.473328%, 79.870605%)" stop-opacity="1"/>
<stop offset="0.789062" stop-color="rgb(27.06604%, 55.711365%, 80.036926%)" stop-opacity="1"/>
<stop offset="0.796875" stop-color="rgb(26.895142%, 55.947876%, 80.204773%)" stop-opacity="1"/>
<stop offset="0.804688" stop-color="rgb(26.722717%, 56.184387%, 80.37262%)" stop-opacity="1"/>
<stop offset="0.8125" stop-color="rgb(26.551819%, 56.422424%, 80.540466%)" stop-opacity="1"/>
<stop offset="0.820312" stop-color="rgb(26.379395%, 56.658936%, 80.708313%)" stop-opacity="1"/>
<stop offset="0.828125" stop-color="rgb(26.208496%, 56.895447%, 80.874634%)" stop-opacity="1"/>
<stop offset="0.835938" stop-color="rgb(26.036072%, 57.133484%, 81.04248%)" stop-opacity="1"/>
<stop offset="0.84375" stop-color="rgb(25.865173%, 57.369995%, 81.210327%)" stop-opacity="1"/>
<stop offset="0.851562" stop-color="rgb(25.692749%, 57.606506%, 81.378174%)" stop-opacity="1"/>
<stop offset="0.859375" stop-color="rgb(25.521851%, 57.843018%, 81.546021%)" stop-opacity="1"/>
<stop offset="0.867188" stop-color="rgb(25.349426%, 58.081055%, 81.712341%)" stop-opacity="1"/>
<stop offset="0.875" stop-color="rgb(25.180054%, 58.314514%, 81.877136%)" stop-opacity="1"/>
<stop offset="1" stop-color="rgb(25.097656%, 58.430481%, 81.959534%)" stop-opacity="1"/>
</linearGradient>
<clipPath id="clip-6">
<path clip-rule="nonzero" d="M 0 0 L 2274.53125 0 L 2274.53125 3302.738281 L 0 3302.738281 Z M 0 0 "/>
</clipPath>
</defs>
<g clip-path="url(#clip-0)">
<g clip-path="url(#clip-1)">
<path fill-rule="nonzero" fill="url(#linear-pattern-0)" d="M 135.515625 520.488281 L 135.515625 3231.769531 L 2203.558594 3231.769531 L 2203.558594 520.488281 Z M 135.515625 520.488281 "/>
</g>
</g>
<g clip-path="url(#clip-2)">
<g clip-path="url(#clip-3)">
<path fill-rule="nonzero" fill="url(#linear-pattern-1)" d="M 663.804688 134.171875 L 663.804688 642.351562 L 1675.230469 642.351562 L 1675.230469 134.171875 Z M 663.804688 134.171875 "/>
</g>
</g>
<g clip-path="url(#clip-4)">
<g clip-path="url(#clip-5)">
<path fill-rule="nonzero" fill="url(#linear-pattern-2)" d="M 1712.761719 1026.171875 L 1712.761719 1184.089844 L 1920.710938 1184.089844 L 1920.710938 1026.171875 Z M 1712.761719 1026.171875 "/>
</g>
</g>
<g clip-path="url(#clip-6)">
<path fill-rule="evenodd" fill="rgb(21.166992%, 4.315186%, 29.417419%)" fill-opacity="1" d="M 1784.441406 993.890625 C 1680.539062 993.890625 1680.480469 1151.808594 1784.441406 1151.808594 C 1888.449219 1151.808594 1888.320312 993.890625 1784.441406 993.890625 Z M 359.53125 3022.199219 C 314.003906 3022.199219 290.441406 2966.648438 323.039062 2934.050781 L 397.25 2859.851562 C 348.253906 2810.839844 275.207031 2760.390625 322.996094 2712.578125 C 370.789062 2664.808594 421.230469 2737.828125 470.253906 2786.839844 C 519.226562 2737.851562 569.722656 2664.78125 617.496094 2712.578125 C 665.289062 2760.390625 592.269531 2810.820312 543.246094 2859.851562 C 592.285156 2908.890625 665.195312 2959.21875 617.460938 3007.050781 C 569.695312 3054.878906 519.226562 2981.828125 470.253906 2932.851562 C 433.746094 2969.328125 393.546875 3022.199219 359.53125 3022.199219 Z M 856.171875 2092.039062 C 810.640625 2092.039062 787.027344 2036.511719 819.648438 2003.890625 L 893.890625 1929.671875 C 844.902344 1880.679688 771.871094 1830.230469 819.648438 1782.449219 C 867.464844 1734.648438 917.933594 1807.691406 966.894531 1856.648438 C 1015.859375 1807.691406 1066.328125 1734.648438 1114.140625 1782.449219 C 1161.929688 1830.230469 1088.898438 1880.679688 1039.910156 1929.671875 C 1088.898438 1978.648438 1161.929688 2029.109375 1114.140625 2076.878906 C 1066.328125 2124.710938 1015.921875 2051.699219 966.894531 2002.691406 C 930.464844 2039.121094 890.171875 2092.039062 856.171875 2092.039062 Z M 1717.199219 2890.578125 L 979.828125 2890.578125 C 951.304688 2890.578125 928.203125 2867.5 928.203125 2838.96875 L 928.203125 2454.710938 L 805.21875 2609.890625 C 763.152344 2662.941406 682.269531 2598.800781 724.28125 2545.769531 L 938.84375 2275.03125 C 959.878906 2248.058594 999.828125 2247.921875 1021.039062 2275.351562 L 1235.390625 2545.769531 C 1277.808594 2599.328125 1196.121094 2662.5 1154.441406 2609.890625 L 1031.449219 2454.710938 L 1031.449219 2787.339844 L 1665.558594 2787.339844 L 1665.558594 2070.898438 C 1665.558594 2002.898438 1768.839844 2002.898438 1768.839844 2070.898438 L 1768.839844 2838.96875 C 1768.839844 2867.5 1745.699219 2890.578125 1717.199219 2890.578125 Z M 505.882812 1840.078125 C 477.359375 1840.078125 454.257812 1816.960938 454.257812 1788.460938 L 454.257812 1020.371094 C 454.257812 991.851562 477.359375 968.75 505.882812 968.75 L 1243.21875 968.75 C 1271.738281 968.75 1294.851562 991.851562 1294.851562 1020.371094 L 1294.851562 1404.679688 L 1417.878906 1249.449219 C 1459.828125 1196.441406 1540.730469 1260.640625 1498.808594 1313.550781 C 1467.550781 1353 1289.160156 1587.730469 1266.359375 1599.050781 C 1244.03125 1610.148438 1217.320312 1604.058594 1201.558594 1583.390625 L 987.707031 1313.550781 C 945.644531 1260.480469 1026.621094 1196.371094 1068.648438 1249.449219 L 1191.609375 1404.578125 L 1191.609375 1072 L 557.507812 1072 L 557.507812 1788.460938 C 557.507812 1816.960938 534.421875 1840.078125 505.882812 1840.078125 Z M 1179.101562 263.371094 C 1123.28125 263.371094 1043.800781 277.050781 1043.800781 211.761719 C 1043.800781 146.449219 1123.28125 160.121094 1179.101562 160.121094 C 1247.078125 160.121094 1247.078125 263.371094 1179.101562 263.371094 Z M 584.363281 488.230469 L 260.355469 488.230469 C 173.730469 488.230469 103.25 558.710938 103.25 645.328125 L 103.25 3042.351562 C 103.25 3129.019531 173.746094 3199.488281 260.355469 3199.488281 L 2014.160156 3199.488281 C 2100.828125 3199.488281 2171.300781 3129.019531 2171.300781 3042.371094 L 2171.300781 645.328125 C 2171.300781 558.699219 2100.808594 488.230469 2014.160156 488.230469 L 1690.101562 488.230469 C 1707.328125 516.878906 1786.488281 635.210938 1786.488281 661.75 C 1786.488281 692.101562 1759.441406 715.121094 1734.300781 713.328125 L 540.171875 713.328125 C 500.105469 713.328125 475.285156 669.390625 495.941406 635.089844 Z M 720.667969 462.011719 L 817.929688 300.46875 L 938.683594 300.46875 C 967.222656 300.46875 990.320312 277.371094 990.320312 248.839844 C 990.320312 167.828125 1056.25 101.890625 1137.261719 101.890625 C 1218.269531 101.890625 1284.191406 167.808594 1284.191406 248.839844 C 1284.191406 277.371094 1307.28125 300.46875 1335.800781 300.46875 L 1456.570312 300.449219 L 1642.949219 610.070312 L 631.535156 610.070312 Z M 2014.160156 3302.738281 C 2157.75 3302.738281 2274.53125 3185.941406 2274.53125 3042.351562 L 2274.53125 645.328125 C 2274.53125 501.78125 2157.71875 384.960938 2014.128906 384.960938 L 1627.929688 384.960938 L 1529.960938 222.238281 C 1520.628906 206.730469 1503.871094 197.230469 1485.75 197.230469 L 1382.03125 197.230469 C 1326.640625 -65.738281 947.773438 -65.75 892.390625 197.230469 L 788.734375 197.21875 C 770.636719 197.21875 753.867188 206.710938 744.503906 222.21875 L 646.535156 384.960938 L 260.382812 384.960938 C 116.816406 384.960938 0.0117188 501.78125 0.0117188 645.328125 L 0 3042.371094 C 0 3185.941406 116.800781 3302.738281 260.355469 3302.738281 Z M 1784.441406 1255.070312 C 1684 1255.070312 1602.269531 1173.328125 1602.269531 1072.871094 C 1602.269531 972.398438 1684 890.660156 1784.441406 890.660156 C 1884.910156 890.660156 1966.640625 972.398438 1966.640625 1072.871094 C 1966.640625 1173.328125 1884.910156 1255.070312 1784.441406 1255.070312 "/>
</g>
</svg>
