<?xml version="1.0" encoding="UTF-8"?>
<svg xmlns="http://www.w3.org/2000/svg" xmlns:xlink="http://www.w3.org/1999/xlink" width="3872.97" height="3872.97" viewBox="0 0 3872.97 3872.97">
<defs>
<clipPath id="clip-0">
<path clip-rule="nonzero" d="M 0 0 L 3872.96875 0 L 3872.96875 3872.96875 L 0 3872.96875 Z M 0 0 "/>
</clipPath>
<clipPath id="clip-1">
<path clip-rule="nonzero" d="M 698 701 L 3174 701 L 3174 3172 L 698 3172 Z M 698 701 "/>
</clipPath>
<clipPath id="clip-2">
<path clip-rule="evenodd" d="M 2665.738281 2931.398438 L 2743.429688 2976.269531 L 2821.128906 2931.398438 L 2821.128906 2841.691406 L 2743.429688 2796.820312 L 2665.738281 2841.691406 Z M 2568.980469 788.601562 C 2292.359375 940.691406 2327.230469 1355.101562 2631.558594 1453.5 C 2645.53125 1458.011719 2655 1471.019531 2655 1485.71875 L 2655 2667.710938 C 2655 2679.960938 2648.378906 2691.269531 2637.710938 2697.261719 C 2446.101562 2804.601562 2519.199219 3103.351562 2743.429688 3103.351562 C 2967.671875 3103.351562 3040.828125 2804.519531 2849.179688 2697.261719 C 2838.480469 2691.269531 2831.859375 2679.980469 2831.859375 2667.710938 L 2831.859375 1485.71875 C 2831.859375 1471.019531 2841.339844 1458.011719 2855.300781 1453.5 C 3159.628906 1355.101562 3194.558594 940.710938 2917.890625 788.601562 L 2917.890625 1102.898438 C 2917.890625 1121.589844 2902.738281 1136.75 2884.019531 1136.75 L 2602.820312 1136.761719 C 2584.128906 1136.761719 2568.980469 1121.601562 2568.980469 1102.910156 Z M 2743.429688 3171.039062 C 3025.820312 3171.039062 3133.46875 2802.449219 2899.589844 2648.699219 L 2899.589844 1509.621094 C 3267.941406 1367.011719 3263.25 843.339844 2896.058594 704.121094 C 2874.289062 695.871094 2850.21875 712.5 2850.21875 735.789062 L 2850.21875 1069.050781 L 2636.699219 1069.050781 L 2636.699219 735.789062 C 2636.699219 712.5 2612.628906 695.871094 2590.839844 704.121094 C 2224.109375 843.03125 2218.550781 1366.878906 2587.320312 1509.621094 L 2587.320312 2648.71875 C 2353.449219 2802.46875 2461.089844 3171.039062 2743.429688 3171.039062 Z M 1132.390625 2605.011719 C 1017.320312 2605.011719 1017.328125 2779.878906 1132.390625 2779.878906 C 1247.449219 2779.878906 1247.449219 2605.011719 1132.390625 2605.011719 Z M 1132.390625 2847.558594 C 1217.929688 2847.558594 1287.519531 2777.980469 1287.53125 2692.429688 C 1287.53125 2606.898438 1217.921875 2537.320312 1132.390625 2537.320312 C 1046.859375 2537.320312 977.25 2606.898438 977.25 2692.429688 C 977.25 2777.980469 1046.828125 2847.558594 1132.390625 2847.558594 Z M 1092.371094 3081.960938 L 1172.410156 3081.960938 C 1221.378906 2862.019531 1183.96875 2970.269531 1287.898438 2886.738281 C 1296.710938 2879.648438 1308.46875 2877.441406 1319.238281 2880.851562 L 1449.679688 2921.871094 L 1489.710938 2852.558594 C 1323.570312 2700.058594 1398.460938 2787.71875 1378.429688 2654.851562 C 1376.738281 2643.699219 1380.699219 2632.46875 1389.011719 2624.859375 L 1489.710938 2532.398438 L 1449.679688 2463.101562 C 1234.808594 2530.621094 1347.050781 2509.070312 1222.851562 2460.589844 C 1212.328125 2456.480469 1204.558594 2447.421875 1202.101562 2436.421875 L 1172.398438 2303 L 1092.371094 2302.980469 C 1043.488281 2522.488281 1080.949219 2414.789062 976.863281 2498.179688 C 968.039062 2505.25 956.289062 2507.441406 945.53125 2504.070312 L 815.085938 2463.078125 L 775.058594 2532.378906 C 941.167969 2684.910156 866.304688 2597.25 886.335938 2730.101562 C 888.023438 2741.25 884.0625 2752.46875 875.757812 2760.078125 L 775.058594 2852.53125 L 815.085938 2921.851562 C 1030.019531 2854.28125 917.707031 2875.890625 1041.929688 2924.351562 C 1052.460938 2928.46875 1060.230469 2937.53125 1062.671875 2948.539062 Z M 1199.550781 3149.648438 L 1065.210938 3149.648438 C 1049.359375 3149.648438 1035.609375 3138.628906 1032.171875 3123.148438 L 1000.351562 2980.230469 C 982.429688 2972.019531 965.320312 2962.109375 949.195312 2950.648438 L 809.480469 2994.601562 C 794.363281 2999.339844 777.945312 2992.960938 770.003906 2979.210938 L 702.832031 2862.871094 C 694.894531 2849.140625 697.570312 2831.738281 709.253906 2821.03125 L 817.152344 2721.960938 L 817.152344 2662.941406 L 709.253906 2563.878906 C 697.570312 2553.140625 694.910156 2535.730469 702.832031 2522.019531 L 770.003906 2405.691406 C 777.945312 2391.960938 794.363281 2385.539062 809.480469 2390.308594 L 949.21875 2434.238281 C 965.339844 2422.769531 982.429688 2412.878906 1000.351562 2404.671875 L 1032.160156 2261.75 C 1035.609375 2246.25 1049.351562 2235.261719 1065.210938 2235.261719 L 1199.550781 2235.261719 C 1215.410156 2235.261719 1229.160156 2246.269531 1232.609375 2261.730469 L 1264.429688 2404.648438 C 1282.339844 2412.878906 1299.441406 2422.75 1315.550781 2434.21875 L 1455.28125 2390.308594 C 1470.398438 2385.539062 1486.820312 2391.941406 1494.761719 2405.691406 L 1561.929688 2522.019531 C 1569.871094 2535.75 1567.191406 2553.140625 1555.5 2563.859375 L 1447.601562 2662.921875 L 1447.601562 2721.980469 L 1555.5 2821.03125 C 1567.191406 2831.738281 1569.871094 2849.160156 1561.929688 2862.871094 L 1494.761719 2979.210938 C 1486.820312 2992.960938 1470.421875 2999.359375 1455.28125 2994.601562 L 1315.570312 2950.648438 C 1299.46875 2962.070312 1282.359375 2972 1264.421875 2980.230469 L 1232.601562 3123.148438 C 1229.160156 3138.628906 1215.410156 3149.648438 1199.550781 3149.648438 Z M 2030.539062 2405.261719 C 2112.371094 2405.261719 2112.351562 2530.089844 2030.539062 2530.089844 C 1948.730469 2530.089844 1948.730469 2405.261719 2030.539062 2405.261719 Z M 2030.539062 2597.761719 C 1958.78125 2597.761719 1900.421875 2539.410156 1900.421875 2467.648438 C 1900.421875 2395.898438 1958.78125 2337.550781 2030.539062 2337.550781 C 2102.289062 2337.550781 2160.660156 2395.898438 2160.660156 2467.648438 C 2160.660156 2539.410156 2102.289062 2597.761719 2030.539062 2597.761719 Z M 2004.359375 2769.828125 L 2056.699219 2769.828125 C 2094.800781 2598.640625 2067.421875 2682.398438 2149.609375 2616.429688 C 2158.410156 2609.339844 2170.171875 2607.148438 2180.949219 2610.539062 L 2279.128906 2641.390625 L 2305.289062 2596.078125 C 2175.671875 2477.078125 2234.921875 2544.101562 2218.910156 2438.851562 C 2217.210938 2427.71875 2221.191406 2416.46875 2229.480469 2408.839844 L 2305.308594 2339.269531 L 2279.128906 2293.941406 C 2111.859375 2346.5 2197.910156 2328.449219 2099.789062 2290.101562 C 2089.308594 2286 2081.511719 2276.941406 2079.039062 2265.929688 L 2056.699219 2165.5 L 2004.359375 2165.5 C 1966.308594 2336.53125 1993.730469 2252.96875 1911.480469 2318.921875 C 1902.660156 2325.988281 1890.910156 2328.140625 1880.148438 2324.808594 L 1781.941406 2293.941406 L 1755.789062 2339.269531 C 1885.121094 2457.96875 1826.328125 2391.148438 1842.191406 2496.519531 C 1843.871094 2507.648438 1839.910156 2518.878906 1831.601562 2526.511719 L 1755.789062 2596.078125 L 1781.941406 2641.390625 C 1949.230469 2588.828125 1863.160156 2606.859375 1961.300781 2645.25 C 1971.800781 2649.371094 1979.558594 2658.429688 1982.011719 2669.421875 Z M 2083.871094 2837.519531 C 2099.730469 2837.519531 2113.460938 2826.519531 2116.898438 2811.039062 L 2141.410156 2700.960938 C 2153.859375 2695.03125 2165.761719 2688.160156 2177.101562 2680.320312 L 2284.71875 2714.140625 C 2299.828125 2718.910156 2316.238281 2712.5 2324.199219 2698.769531 L 2377.519531 2606.449219 C 2385.460938 2592.71875 2382.800781 2575.300781 2371.101562 2564.589844 L 2287.988281 2488.289062 L 2287.988281 2447.101562 L 2371.101562 2370.808594 C 2382.800781 2360.089844 2385.460938 2342.691406 2377.519531 2328.949219 L 2324.199219 2236.621094 C 2316.238281 2222.871094 2299.828125 2216.441406 2284.71875 2221.230469 L 2177.101562 2255.070312 C 2165.738281 2247.25 2153.820312 2240.339844 2141.410156 2234.429688 L 2116.898438 2124.328125 C 2113.460938 2108.871094 2099.710938 2097.859375 2083.851562 2097.859375 L 1977.21875 2097.839844 C 1961.359375 2097.839844 1947.609375 2108.828125 1944.160156 2124.328125 L 1919.660156 2234.429688 C 1907.25 2240.320312 1895.320312 2247.210938 1883.96875 2255.050781 L 1776.359375 2221.230469 C 1761.21875 2216.441406 1744.820312 2222.871094 1736.878906 2236.601562 L 1683.558594 2328.949219 C 1675.628906 2342.660156 1678.289062 2360.070312 1689.980469 2370.789062 L 1773.109375 2447.078125 L 1773.109375 2488.289062 L 1689.980469 2564.589844 C 1678.308594 2575.300781 1675.640625 2592.699219 1683.578125 2606.429688 L 1736.898438 2698.761719 C 1744.820312 2712.5 1761.210938 2718.910156 1776.359375 2714.140625 L 1883.980469 2680.300781 C 1895.308594 2688.121094 1907.238281 2695.03125 1919.671875 2700.960938 L 1944.191406 2811.039062 C 1947.628906 2826.5 1961.398438 2837.519531 1977.238281 2837.519531 Z M 1417.570312 1199.769531 C 1266.039062 1199.769531 1142.789062 1323.050781 1142.789062 1474.558594 C 1142.789062 1626.058594 1266.058594 1749.328125 1417.570312 1749.328125 C 1569.078125 1749.328125 1692.351562 1626.058594 1692.351562 1474.558594 C 1692.351562 1323.050781 1569.101562 1199.769531 1417.570312 1199.769531 Z M 1417.570312 1817.078125 C 1606.421875 1817.078125 1760.089844 1663.410156 1760.089844 1474.558594 C 1760.089844 1285.699219 1606.421875 1132.03125 1417.570312 1132.03125 C 1228.71875 1132.03125 1075.050781 1285.699219 1075.050781 1474.558594 C 1075.050781 1663.410156 1228.71875 1817.078125 1417.570312 1817.078125 Z M 1329.679688 2165.738281 L 1505.449219 2165.738281 L 1560.53125 1918.398438 C 1567.890625 1885.371094 1619.539062 1889.808594 1699 1826.121094 C 1707.828125 1819.050781 1719.558594 1816.851562 1730.328125 1820.230469 L 1972.179688 1896.25 L 2060.050781 1744.03125 L 1873.371094 1572.660156 C 1850.070312 1551.28125 1877.199219 1501.898438 1862.761719 1406.539062 C 1861.078125 1395.398438 1865.03125 1384.140625 1873.339844 1376.511719 L 2060.070312 1205.121094 L 1972.179688 1052.898438 L 1730.328125 1128.898438 C 1698.039062 1139.101562 1676.078125 1091.980469 1581.269531 1054.921875 C 1570.769531 1050.800781 1562.988281 1041.75 1560.53125 1030.738281 L 1505.449219 783.410156 L 1329.679688 783.410156 L 1274.621094 1030.738281 C 1267.28125 1063.671875 1216.21875 1059.070312 1136.148438 1123.011719 C 1127.328125 1130.039062 1115.578125 1132.28125 1104.820312 1128.898438 L 862.953125 1052.878906 L 775.078125 1205.101562 L 961.792969 1376.5 C 985.117188 1397.898438 957.933594 1447.078125 972.382812 1542.640625 C 974.058594 1553.789062 970.097656 1565.039062 961.792969 1572.648438 L 775.078125 1744.050781 L 862.953125 1896.269531 L 1104.820312 1820.25 C 1137.148438 1810.078125 1159.050781 1857.148438 1253.898438 1894.25 C 1264.398438 1898.359375 1272.179688 1907.421875 1274.648438 1918.441406 Z M 1532.589844 2233.429688 L 1302.53125 2233.429688 C 1286.671875 2233.429688 1272.929688 2222.410156 1269.480469 2206.949219 L 1212.378906 1950.351562 C 1175.46875 1934.429688 1140.558594 1914.238281 1108.25 1890.140625 L 857.359375 1969 C 842.230469 1973.648438 825.820312 1967.371094 817.882812 1953.621094 L 702.859375 1754.378906 C 694.921875 1740.640625 697.589844 1723.25 709.292969 1712.511719 L 903.011719 1534.679688 C 898.402344 1494.71875 898.402344 1454.421875 903.011719 1414.46875 L 709.292969 1236.640625 C 697.589844 1225.898438 694.933594 1208.5 702.859375 1194.761719 L 817.882812 995.519531 C 825.820312 981.769531 842.230469 975.390625 857.359375 980.140625 L 1108.269531 1059.019531 C 1140.589844 1034.898438 1175.5 1014.71875 1212.378906 998.800781 L 1269.480469 742.210938 C 1272.929688 726.738281 1286.671875 715.710938 1302.53125 715.710938 L 1532.589844 715.71875 C 1548.449219 715.71875 1562.199219 726.761719 1565.648438 742.230469 L 1622.769531 998.820312 C 1659.660156 1014.738281 1694.558594 1034.929688 1726.878906 1059.03125 L 1977.769531 980.148438 C 1992.878906 975.421875 2009.289062 981.769531 2017.25 995.53125 L 2132.269531 1194.769531 C 2140.210938 1208.511719 2137.53125 1225.921875 2125.851562 1236.648438 L 1932.128906 1414.480469 C 1936.738281 1454.371094 1936.738281 1494.839844 1932.128906 1534.730469 L 2125.851562 1712.558594 C 2137.53125 1723.300781 2140.210938 1740.699219 2132.269531 1754.441406 L 2017.25 1953.679688 C 2009.289062 1967.410156 1992.878906 1973.691406 1977.769531 1969.039062 L 1726.878906 1890.191406 C 1694.589844 1914.269531 1659.699219 1934.46875 1622.769531 1950.390625 L 1565.648438 2206.949219 C 1562.199219 2222.410156 1548.449219 2233.429688 1532.589844 2233.429688 Z M 2743.429688 3049.199219 C 2724.421875 3049.199219 2636.601562 2992.78125 2614.960938 2980.289062 C 2604.480469 2974.230469 2598.011719 2963.078125 2598.011719 2950.960938 L 2598.011719 2822.148438 C 2598.011719 2810.050781 2604.460938 2798.890625 2614.960938 2792.820312 L 2726.488281 2728.421875 C 2736.96875 2722.390625 2749.871094 2722.390625 2760.351562 2728.421875 L 2871.910156 2792.820312 C 2882.410156 2798.890625 2888.828125 2810.050781 2888.828125 2822.148438 L 2888.828125 2950.960938 C 2888.828125 2963.078125 2882.390625 2974.230469 2871.910156 2980.289062 C 2850.238281 2992.78125 2762.421875 3049.199219 2743.429688 3049.199219 "/>
</clipPath>
<linearGradient id="linear-pattern-0" gradientUnits="userSpaceOnUse" x1="-0.00277831" y1="0" x2="1.077744" y2="0" gradientTransform="matrix(2381.3, 0, 0, 2381.3, 701.509, 1936.51)">
<stop offset="0" stop-color="rgb(94.508362%, 95.684814%, 98.03772%)" stop-opacity="1"/>
<stop offset="0.0078125" stop-color="rgb(94.367981%, 95.588684%, 97.993469%)" stop-opacity="1"/>
<stop offset="0.0117188" stop-color="rgb(94.020081%, 95.347595%, 97.88208%)" stop-opacity="1"/>
<stop offset="0.015625" stop-color="rgb(93.812561%, 95.204163%, 97.816467%)" stop-opacity="1"/>
<stop offset="0.0195312" stop-color="rgb(93.603516%, 95.059204%, 97.750854%)" stop-opacity="1"/>
<stop offset="0.0234375" stop-color="rgb(93.39447%, 94.915771%, 97.685242%)" stop-opacity="1"/>
<stop offset="0.0273438" stop-color="rgb(93.185425%, 94.772339%, 97.618103%)" stop-opacity="1"/>
<stop offset="0.03125" stop-color="rgb(92.977905%, 94.628906%, 97.55249%)" stop-opacity="1"/>
<stop offset="0.0351562" stop-color="rgb(92.76886%, 94.483948%, 97.485352%)" stop-opacity="1"/>
<stop offset="0.0390625" stop-color="rgb(92.56134%, 94.340515%, 97.419739%)" stop-opacity="1"/>
<stop offset="0.0429688" stop-color="rgb(92.352295%, 94.195557%, 97.3526%)" stop-opacity="1"/>
<stop offset="0.046875" stop-color="rgb(92.14325%, 94.052124%, 97.286987%)" stop-opacity="1"/>
<stop offset="0.0507812" stop-color="rgb(91.934204%, 93.907166%, 97.221375%)" stop-opacity="1"/>
<stop offset="0.0546875" stop-color="rgb(91.726685%, 93.763733%, 97.155762%)" stop-opacity="1"/>
<stop offset="0.0585938" stop-color="rgb(91.517639%, 93.6203%, 97.088623%)" stop-opacity="1"/>
<stop offset="0.0625" stop-color="rgb(91.31012%, 93.476868%, 97.02301%)" stop-opacity="1"/>
<stop offset="0.0664062" stop-color="rgb(91.101074%, 93.331909%, 96.955872%)" stop-opacity="1"/>
<stop offset="0.0703125" stop-color="rgb(90.892029%, 93.188477%, 96.890259%)" stop-opacity="1"/>
<stop offset="0.0742188" stop-color="rgb(90.682983%, 93.043518%, 96.82312%)" stop-opacity="1"/>
<stop offset="0.078125" stop-color="rgb(90.475464%, 92.900085%, 96.757507%)" stop-opacity="1"/>
<stop offset="0.0820312" stop-color="rgb(90.266418%, 92.755127%, 96.690369%)" stop-opacity="1"/>
<stop offset="0.0859375" stop-color="rgb(90.057373%, 92.611694%, 96.624756%)" stop-opacity="1"/>
<stop offset="0.0898438" stop-color="rgb(89.848328%, 92.468262%, 96.559143%)" stop-opacity="1"/>
<stop offset="0.09375" stop-color="rgb(89.640808%, 92.324829%, 96.49353%)" stop-opacity="1"/>
<stop offset="0.0976562" stop-color="rgb(89.431763%, 92.179871%, 96.426392%)" stop-opacity="1"/>
<stop offset="0.101562" stop-color="rgb(89.224243%, 92.036438%, 96.360779%)" stop-opacity="1"/>
<stop offset="0.105469" stop-color="rgb(89.015198%, 91.891479%, 96.29364%)" stop-opacity="1"/>
<stop offset="0.109375" stop-color="rgb(88.806152%, 91.748047%, 96.228027%)" stop-opacity="1"/>
<stop offset="0.113281" stop-color="rgb(88.597107%, 91.603088%, 96.160889%)" stop-opacity="1"/>
<stop offset="0.117188" stop-color="rgb(88.389587%, 91.459656%, 96.095276%)" stop-opacity="1"/>
<stop offset="0.121094" stop-color="rgb(88.180542%, 91.316223%, 96.029663%)" stop-opacity="1"/>
<stop offset="0.125" stop-color="rgb(87.973022%, 91.172791%, 95.96405%)" stop-opacity="1"/>
<stop offset="0.128906" stop-color="rgb(87.763977%, 91.027832%, 95.896912%)" stop-opacity="1"/>
<stop offset="0.132812" stop-color="rgb(87.554932%, 90.884399%, 95.831299%)" stop-opacity="1"/>
<stop offset="0.136719" stop-color="rgb(87.345886%, 90.739441%, 95.76416%)" stop-opacity="1"/>
<stop offset="0.140625" stop-color="rgb(87.138367%, 90.596008%, 95.698547%)" stop-opacity="1"/>
<stop offset="0.144531" stop-color="rgb(86.929321%, 90.45105%, 95.631409%)" stop-opacity="1"/>
<stop offset="0.148438" stop-color="rgb(86.721802%, 90.307617%, 95.565796%)" stop-opacity="1"/>
<stop offset="0.152344" stop-color="rgb(86.512756%, 90.164185%, 95.498657%)" stop-opacity="1"/>
<stop offset="0.15625" stop-color="rgb(86.303711%, 90.020752%, 95.433044%)" stop-opacity="1"/>
<stop offset="0.160156" stop-color="rgb(86.094666%, 89.875793%, 95.367432%)" stop-opacity="1"/>
<stop offset="0.164062" stop-color="rgb(85.887146%, 89.732361%, 95.301819%)" stop-opacity="1"/>
<stop offset="0.167969" stop-color="rgb(85.678101%, 89.587402%, 95.23468%)" stop-opacity="1"/>
<stop offset="0.171875" stop-color="rgb(85.470581%, 89.44397%, 95.169067%)" stop-opacity="1"/>
<stop offset="0.175781" stop-color="rgb(85.261536%, 89.299011%, 95.101929%)" stop-opacity="1"/>
<stop offset="0.179688" stop-color="rgb(85.05249%, 89.155579%, 95.036316%)" stop-opacity="1"/>
<stop offset="0.183594" stop-color="rgb(84.843445%, 89.012146%, 94.969177%)" stop-opacity="1"/>
<stop offset="0.1875" stop-color="rgb(84.635925%, 88.868713%, 94.903564%)" stop-opacity="1"/>
<stop offset="0.191406" stop-color="rgb(84.42688%, 88.723755%, 94.837952%)" stop-opacity="1"/>
<stop offset="0.195312" stop-color="rgb(84.217834%, 88.580322%, 94.772339%)" stop-opacity="1"/>
<stop offset="0.199219" stop-color="rgb(84.008789%, 88.435364%, 94.7052%)" stop-opacity="1"/>
<stop offset="0.203125" stop-color="rgb(83.80127%, 88.291931%, 94.639587%)" stop-opacity="1"/>
<stop offset="0.207031" stop-color="rgb(83.592224%, 88.146973%, 94.572449%)" stop-opacity="1"/>
<stop offset="0.210938" stop-color="rgb(83.384705%, 88.00354%, 94.506836%)" stop-opacity="1"/>
<stop offset="0.214844" stop-color="rgb(83.175659%, 87.860107%, 94.439697%)" stop-opacity="1"/>
<stop offset="0.21875" stop-color="rgb(82.966614%, 87.716675%, 94.374084%)" stop-opacity="1"/>
<stop offset="0.222656" stop-color="rgb(82.757568%, 87.571716%, 94.306946%)" stop-opacity="1"/>
<stop offset="0.226562" stop-color="rgb(82.550049%, 87.428284%, 94.241333%)" stop-opacity="1"/>
<stop offset="0.230469" stop-color="rgb(82.341003%, 87.283325%, 94.17572%)" stop-opacity="1"/>
<stop offset="0.234375" stop-color="rgb(82.133484%, 87.139893%, 94.110107%)" stop-opacity="1"/>
<stop offset="0.238281" stop-color="rgb(81.924438%, 86.994934%, 94.042969%)" stop-opacity="1"/>
<stop offset="0.242188" stop-color="rgb(81.715393%, 86.851501%, 93.977356%)" stop-opacity="1"/>
<stop offset="0.246094" stop-color="rgb(81.506348%, 86.708069%, 93.910217%)" stop-opacity="1"/>
<stop offset="0.25" stop-color="rgb(81.298828%, 86.564636%, 93.844604%)" stop-opacity="1"/>
<stop offset="0.253906" stop-color="rgb(81.089783%, 86.419678%, 93.777466%)" stop-opacity="1"/>
<stop offset="0.257812" stop-color="rgb(80.882263%, 86.276245%, 93.711853%)" stop-opacity="1"/>
<stop offset="0.261719" stop-color="rgb(80.673218%, 86.131287%, 93.644714%)" stop-opacity="1"/>
<stop offset="0.265625" stop-color="rgb(80.464172%, 85.987854%, 93.579102%)" stop-opacity="1"/>
<stop offset="0.269531" stop-color="rgb(80.255127%, 85.842896%, 93.513489%)" stop-opacity="1"/>
<stop offset="0.273438" stop-color="rgb(80.047607%, 85.699463%, 93.447876%)" stop-opacity="1"/>
<stop offset="0.277344" stop-color="rgb(79.838562%, 85.55603%, 93.380737%)" stop-opacity="1"/>
<stop offset="0.28125" stop-color="rgb(79.629517%, 85.412598%, 93.315125%)" stop-opacity="1"/>
<stop offset="0.285156" stop-color="rgb(79.420471%, 85.267639%, 93.247986%)" stop-opacity="1"/>
<stop offset="0.289062" stop-color="rgb(79.212952%, 85.124207%, 93.182373%)" stop-opacity="1"/>
<stop offset="0.292969" stop-color="rgb(79.003906%, 84.979248%, 93.115234%)" stop-opacity="1"/>
<stop offset="0.296875" stop-color="rgb(78.796387%, 84.835815%, 93.049622%)" stop-opacity="1"/>
<stop offset="0.300781" stop-color="rgb(78.587341%, 84.690857%, 92.984009%)" stop-opacity="1"/>
<stop offset="0.304687" stop-color="rgb(78.378296%, 84.547424%, 92.918396%)" stop-opacity="1"/>
<stop offset="0.308594" stop-color="rgb(78.16925%, 84.403992%, 92.851257%)" stop-opacity="1"/>
<stop offset="0.3125" stop-color="rgb(77.961731%, 84.260559%, 92.785645%)" stop-opacity="1"/>
<stop offset="0.316406" stop-color="rgb(77.752686%, 84.115601%, 92.718506%)" stop-opacity="1"/>
<stop offset="0.320312" stop-color="rgb(77.545166%, 83.972168%, 92.652893%)" stop-opacity="1"/>
<stop offset="0.324219" stop-color="rgb(77.336121%, 83.827209%, 92.585754%)" stop-opacity="1"/>
<stop offset="0.328125" stop-color="rgb(77.127075%, 83.683777%, 92.520142%)" stop-opacity="1"/>
<stop offset="0.332031" stop-color="rgb(76.91803%, 83.538818%, 92.453003%)" stop-opacity="1"/>
<stop offset="0.335938" stop-color="rgb(76.71051%, 83.395386%, 92.38739%)" stop-opacity="1"/>
<stop offset="0.339844" stop-color="rgb(76.501465%, 83.251953%, 92.321777%)" stop-opacity="1"/>
<stop offset="0.34375" stop-color="rgb(76.293945%, 83.108521%, 92.256165%)" stop-opacity="1"/>
<stop offset="0.347656" stop-color="rgb(76.0849%, 82.963562%, 92.189026%)" stop-opacity="1"/>
<stop offset="0.351562" stop-color="rgb(75.875854%, 82.820129%, 92.123413%)" stop-opacity="1"/>
<stop offset="0.355469" stop-color="rgb(75.666809%, 82.675171%, 92.056274%)" stop-opacity="1"/>
<stop offset="0.359375" stop-color="rgb(75.45929%, 82.531738%, 91.990662%)" stop-opacity="1"/>
<stop offset="0.363281" stop-color="rgb(75.250244%, 82.38678%, 91.923523%)" stop-opacity="1"/>
<stop offset="0.367188" stop-color="rgb(75.042725%, 82.243347%, 91.85791%)" stop-opacity="1"/>
<stop offset="0.371094" stop-color="rgb(74.833679%, 82.099915%, 91.792297%)" stop-opacity="1"/>
<stop offset="0.375" stop-color="rgb(74.624634%, 81.956482%, 91.726685%)" stop-opacity="1"/>
<stop offset="0.378906" stop-color="rgb(74.415588%, 81.811523%, 91.659546%)" stop-opacity="1"/>
<stop offset="0.382812" stop-color="rgb(74.208069%, 81.668091%, 91.593933%)" stop-opacity="1"/>
<stop offset="0.386719" stop-color="rgb(73.999023%, 81.523132%, 91.526794%)" stop-opacity="1"/>
<stop offset="0.390625" stop-color="rgb(73.789978%, 81.3797%, 91.461182%)" stop-opacity="1"/>
<stop offset="0.394531" stop-color="rgb(73.580933%, 81.234741%, 91.394043%)" stop-opacity="1"/>
<stop offset="0.398438" stop-color="rgb(73.373413%, 81.091309%, 91.32843%)" stop-opacity="1"/>
<stop offset="0.402344" stop-color="rgb(73.164368%, 80.947876%, 91.261292%)" stop-opacity="1"/>
<stop offset="0.40625" stop-color="rgb(72.956848%, 80.804443%, 91.195679%)" stop-opacity="1"/>
<stop offset="0.410156" stop-color="rgb(72.747803%, 80.659485%, 91.130066%)" stop-opacity="1"/>
<stop offset="0.414062" stop-color="rgb(72.538757%, 80.516052%, 91.064453%)" stop-opacity="1"/>
<stop offset="0.417969" stop-color="rgb(72.329712%, 80.371094%, 90.997314%)" stop-opacity="1"/>
<stop offset="0.421875" stop-color="rgb(72.122192%, 80.227661%, 90.931702%)" stop-opacity="1"/>
<stop offset="0.425781" stop-color="rgb(71.913147%, 80.082703%, 90.864563%)" stop-opacity="1"/>
<stop offset="0.429687" stop-color="rgb(71.705627%, 79.93927%, 90.79895%)" stop-opacity="1"/>
<stop offset="0.433594" stop-color="rgb(71.496582%, 79.795837%, 90.731812%)" stop-opacity="1"/>
<stop offset="0.4375" stop-color="rgb(71.287537%, 79.652405%, 90.666199%)" stop-opacity="1"/>
<stop offset="0.441406" stop-color="rgb(71.078491%, 79.507446%, 90.600586%)" stop-opacity="1"/>
<stop offset="0.445312" stop-color="rgb(70.870972%, 79.364014%, 90.534973%)" stop-opacity="1"/>
<stop offset="0.449219" stop-color="rgb(70.661926%, 79.219055%, 90.467834%)" stop-opacity="1"/>
<stop offset="0.453125" stop-color="rgb(70.454407%, 79.075623%, 90.402222%)" stop-opacity="1"/>
<stop offset="0.457031" stop-color="rgb(70.245361%, 78.930664%, 90.335083%)" stop-opacity="1"/>
<stop offset="0.460937" stop-color="rgb(70.036316%, 78.787231%, 90.26947%)" stop-opacity="1"/>
<stop offset="0.464844" stop-color="rgb(69.827271%, 78.643799%, 90.202332%)" stop-opacity="1"/>
<stop offset="0.46875" stop-color="rgb(69.619751%, 78.500366%, 90.136719%)" stop-opacity="1"/>
<stop offset="0.472656" stop-color="rgb(69.410706%, 78.355408%, 90.06958%)" stop-opacity="1"/>
<stop offset="0.476562" stop-color="rgb(69.20166%, 78.211975%, 90.003967%)" stop-opacity="1"/>
<stop offset="0.480469" stop-color="rgb(68.992615%, 78.067017%, 89.938354%)" stop-opacity="1"/>
<stop offset="0.484375" stop-color="rgb(68.785095%, 77.923584%, 89.872742%)" stop-opacity="1"/>
<stop offset="0.488281" stop-color="rgb(68.57605%, 77.778625%, 89.805603%)" stop-opacity="1"/>
<stop offset="0.492187" stop-color="rgb(68.36853%, 77.635193%, 89.73999%)" stop-opacity="1"/>
<stop offset="0.496094" stop-color="rgb(68.159485%, 77.49176%, 89.672852%)" stop-opacity="1"/>
<stop offset="0.5" stop-color="rgb(67.950439%, 77.348328%, 89.607239%)" stop-opacity="1"/>
<stop offset="0.503906" stop-color="rgb(67.741394%, 77.203369%, 89.5401%)" stop-opacity="1"/>
<stop offset="0.507813" stop-color="rgb(67.533875%, 77.059937%, 89.474487%)" stop-opacity="1"/>
<stop offset="0.511719" stop-color="rgb(67.324829%, 76.914978%, 89.407349%)" stop-opacity="1"/>
<stop offset="0.515625" stop-color="rgb(67.11731%, 76.771545%, 89.341736%)" stop-opacity="1"/>
<stop offset="0.519531" stop-color="rgb(66.908264%, 76.626587%, 89.276123%)" stop-opacity="1"/>
<stop offset="0.523438" stop-color="rgb(66.699219%, 76.483154%, 89.21051%)" stop-opacity="1"/>
<stop offset="0.527344" stop-color="rgb(66.490173%, 76.339722%, 89.143372%)" stop-opacity="1"/>
<stop offset="0.53125" stop-color="rgb(66.282654%, 76.196289%, 89.077759%)" stop-opacity="1"/>
<stop offset="0.535156" stop-color="rgb(66.073608%, 76.051331%, 89.01062%)" stop-opacity="1"/>
<stop offset="0.539062" stop-color="rgb(65.866089%, 75.907898%, 88.945007%)" stop-opacity="1"/>
<stop offset="0.542969" stop-color="rgb(65.657043%, 75.762939%, 88.877869%)" stop-opacity="1"/>
<stop offset="0.546875" stop-color="rgb(65.447998%, 75.619507%, 88.812256%)" stop-opacity="1"/>
<stop offset="0.550781" stop-color="rgb(65.238953%, 75.474548%, 88.746643%)" stop-opacity="1"/>
<stop offset="0.554688" stop-color="rgb(65.031433%, 75.331116%, 88.68103%)" stop-opacity="1"/>
<stop offset="0.558594" stop-color="rgb(64.822388%, 75.187683%, 88.613892%)" stop-opacity="1"/>
<stop offset="0.5625" stop-color="rgb(64.614868%, 75.04425%, 88.548279%)" stop-opacity="1"/>
<stop offset="0.566406" stop-color="rgb(64.405823%, 74.899292%, 88.48114%)" stop-opacity="1"/>
<stop offset="0.570312" stop-color="rgb(64.196777%, 74.755859%, 88.415527%)" stop-opacity="1"/>
<stop offset="0.574219" stop-color="rgb(63.987732%, 74.610901%, 88.348389%)" stop-opacity="1"/>
<stop offset="0.578125" stop-color="rgb(63.780212%, 74.467468%, 88.282776%)" stop-opacity="1"/>
<stop offset="0.582031" stop-color="rgb(63.571167%, 74.32251%, 88.215637%)" stop-opacity="1"/>
<stop offset="0.585937" stop-color="rgb(63.362122%, 74.179077%, 88.150024%)" stop-opacity="1"/>
<stop offset="0.589844" stop-color="rgb(63.153076%, 74.035645%, 88.084412%)" stop-opacity="1"/>
<stop offset="0.59375" stop-color="rgb(62.945557%, 73.892212%, 88.018799%)" stop-opacity="1"/>
<stop offset="0.597656" stop-color="rgb(62.736511%, 73.747253%, 87.95166%)" stop-opacity="1"/>
<stop offset="0.601563" stop-color="rgb(62.528992%, 73.603821%, 87.886047%)" stop-opacity="1"/>
<stop offset="0.605469" stop-color="rgb(62.319946%, 73.458862%, 87.818909%)" stop-opacity="1"/>
<stop offset="0.609375" stop-color="rgb(62.110901%, 73.31543%, 87.753296%)" stop-opacity="1"/>
<stop offset="0.613281" stop-color="rgb(61.901855%, 73.170471%, 87.686157%)" stop-opacity="1"/>
<stop offset="0.617188" stop-color="rgb(61.694336%, 73.027039%, 87.620544%)" stop-opacity="1"/>
<stop offset="0.621094" stop-color="rgb(61.485291%, 72.883606%, 87.554932%)" stop-opacity="1"/>
<stop offset="0.625" stop-color="rgb(61.277771%, 72.740173%, 87.489319%)" stop-opacity="1"/>
<stop offset="0.628906" stop-color="rgb(61.068726%, 72.595215%, 87.42218%)" stop-opacity="1"/>
<stop offset="0.632812" stop-color="rgb(60.85968%, 72.451782%, 87.356567%)" stop-opacity="1"/>
<stop offset="0.636719" stop-color="rgb(60.650635%, 72.306824%, 87.289429%)" stop-opacity="1"/>
<stop offset="0.640625" stop-color="rgb(60.443115%, 72.163391%, 87.223816%)" stop-opacity="1"/>
<stop offset="0.644531" stop-color="rgb(60.23407%, 72.018433%, 87.156677%)" stop-opacity="1"/>
<stop offset="0.648438" stop-color="rgb(60.02655%, 71.875%, 87.091064%)" stop-opacity="1"/>
<stop offset="0.652344" stop-color="rgb(59.817505%, 71.731567%, 87.023926%)" stop-opacity="1"/>
<stop offset="0.65625" stop-color="rgb(59.608459%, 71.588135%, 86.958313%)" stop-opacity="1"/>
<stop offset="0.660156" stop-color="rgb(59.399414%, 71.443176%, 86.8927%)" stop-opacity="1"/>
<stop offset="0.664062" stop-color="rgb(59.191895%, 71.299744%, 86.827087%)" stop-opacity="1"/>
<stop offset="0.667969" stop-color="rgb(58.982849%, 71.154785%, 86.759949%)" stop-opacity="1"/>
<stop offset="0.671875" stop-color="rgb(58.773804%, 71.011353%, 86.694336%)" stop-opacity="1"/>
<stop offset="0.675781" stop-color="rgb(58.564758%, 70.866394%, 86.627197%)" stop-opacity="1"/>
<stop offset="0.679687" stop-color="rgb(58.357239%, 70.722961%, 86.561584%)" stop-opacity="1"/>
<stop offset="0.683594" stop-color="rgb(58.148193%, 70.579529%, 86.494446%)" stop-opacity="1"/>
<stop offset="0.6875" stop-color="rgb(57.940674%, 70.436096%, 86.428833%)" stop-opacity="1"/>
<stop offset="0.691406" stop-color="rgb(57.731628%, 70.291138%, 86.36322%)" stop-opacity="1"/>
<stop offset="0.695313" stop-color="rgb(57.522583%, 70.147705%, 86.297607%)" stop-opacity="1"/>
<stop offset="0.699219" stop-color="rgb(57.313538%, 70.002747%, 86.230469%)" stop-opacity="1"/>
<stop offset="0.703125" stop-color="rgb(57.106018%, 69.859314%, 86.164856%)" stop-opacity="1"/>
<stop offset="0.707031" stop-color="rgb(56.896973%, 69.714355%, 86.097717%)" stop-opacity="1"/>
<stop offset="0.710938" stop-color="rgb(56.689453%, 69.570923%, 86.032104%)" stop-opacity="1"/>
<stop offset="0.714844" stop-color="rgb(56.480408%, 69.42749%, 85.964966%)" stop-opacity="1"/>
<stop offset="0.71875" stop-color="rgb(56.271362%, 69.284058%, 85.899353%)" stop-opacity="1"/>
<stop offset="0.722656" stop-color="rgb(56.062317%, 69.139099%, 85.832214%)" stop-opacity="1"/>
<stop offset="0.726562" stop-color="rgb(55.854797%, 68.995667%, 85.766602%)" stop-opacity="1"/>
<stop offset="0.730469" stop-color="rgb(55.645752%, 68.850708%, 85.700989%)" stop-opacity="1"/>
<stop offset="0.734375" stop-color="rgb(55.438232%, 68.707275%, 85.635376%)" stop-opacity="1"/>
<stop offset="0.738281" stop-color="rgb(55.229187%, 68.562317%, 85.568237%)" stop-opacity="1"/>
<stop offset="0.742188" stop-color="rgb(55.020142%, 68.418884%, 85.502625%)" stop-opacity="1"/>
<stop offset="0.746094" stop-color="rgb(54.811096%, 68.275452%, 85.435486%)" stop-opacity="1"/>
<stop offset="0.75" stop-color="rgb(54.603577%, 68.132019%, 85.369873%)" stop-opacity="1"/>
<stop offset="0.753906" stop-color="rgb(54.394531%, 67.987061%, 85.302734%)" stop-opacity="1"/>
<stop offset="0.757812" stop-color="rgb(54.187012%, 67.843628%, 85.237122%)" stop-opacity="1"/>
<stop offset="0.761719" stop-color="rgb(53.977966%, 67.698669%, 85.171509%)" stop-opacity="1"/>
<stop offset="0.765625" stop-color="rgb(53.768921%, 67.555237%, 85.105896%)" stop-opacity="1"/>
<stop offset="0.769531" stop-color="rgb(53.559875%, 67.411804%, 85.038757%)" stop-opacity="1"/>
<stop offset="0.773438" stop-color="rgb(53.352356%, 67.268372%, 84.973145%)" stop-opacity="1"/>
<stop offset="0.777344" stop-color="rgb(53.143311%, 67.123413%, 84.906006%)" stop-opacity="1"/>
<stop offset="0.78125" stop-color="rgb(52.934265%, 66.97998%, 84.840393%)" stop-opacity="1"/>
<stop offset="0.785156" stop-color="rgb(52.72522%, 66.835022%, 84.773254%)" stop-opacity="1"/>
<stop offset="0.789063" stop-color="rgb(52.5177%, 66.691589%, 84.707642%)" stop-opacity="1"/>
<stop offset="0.792969" stop-color="rgb(52.308655%, 66.546631%, 84.640503%)" stop-opacity="1"/>
<stop offset="0.796875" stop-color="rgb(52.101135%, 66.403198%, 84.57489%)" stop-opacity="1"/>
<stop offset="0.800781" stop-color="rgb(51.89209%, 66.259766%, 84.509277%)" stop-opacity="1"/>
<stop offset="0.804688" stop-color="rgb(51.683044%, 66.116333%, 84.443665%)" stop-opacity="1"/>
<stop offset="0.808594" stop-color="rgb(51.473999%, 65.971375%, 84.376526%)" stop-opacity="1"/>
<stop offset="0.8125" stop-color="rgb(51.266479%, 65.827942%, 84.310913%)" stop-opacity="1"/>
<stop offset="0.816406" stop-color="rgb(51.057434%, 65.682983%, 84.243774%)" stop-opacity="1"/>
<stop offset="0.820312" stop-color="rgb(50.849915%, 65.539551%, 84.178162%)" stop-opacity="1"/>
<stop offset="0.824219" stop-color="rgb(50.640869%, 65.394592%, 84.111023%)" stop-opacity="1"/>
<stop offset="0.828125" stop-color="rgb(50.431824%, 65.25116%, 84.04541%)" stop-opacity="1"/>
<stop offset="0.832031" stop-color="rgb(50.222778%, 65.107727%, 83.978271%)" stop-opacity="1"/>
<stop offset="0.835938" stop-color="rgb(50.015259%, 64.964294%, 83.912659%)" stop-opacity="1"/>
<stop offset="0.839844" stop-color="rgb(49.806213%, 64.819336%, 83.847046%)" stop-opacity="1"/>
<stop offset="0.84375" stop-color="rgb(49.598694%, 64.675903%, 83.781433%)" stop-opacity="1"/>
<stop offset="0.847656" stop-color="rgb(49.389648%, 64.530945%, 83.714294%)" stop-opacity="1"/>
<stop offset="0.851562" stop-color="rgb(49.180603%, 64.387512%, 83.648682%)" stop-opacity="1"/>
<stop offset="0.855469" stop-color="rgb(48.971558%, 64.242554%, 83.581543%)" stop-opacity="1"/>
<stop offset="0.859375" stop-color="rgb(48.764038%, 64.099121%, 83.51593%)" stop-opacity="1"/>
<stop offset="0.863281" stop-color="rgb(48.554993%, 63.955688%, 83.448792%)" stop-opacity="1"/>
<stop offset="0.867188" stop-color="rgb(48.347473%, 63.812256%, 83.383179%)" stop-opacity="1"/>
<stop offset="0.871094" stop-color="rgb(48.138428%, 63.667297%, 83.317566%)" stop-opacity="1"/>
<stop offset="0.875" stop-color="rgb(47.929382%, 63.523865%, 83.251953%)" stop-opacity="1"/>
<stop offset="0.878906" stop-color="rgb(47.720337%, 63.378906%, 83.184814%)" stop-opacity="1"/>
<stop offset="0.882813" stop-color="rgb(47.512817%, 63.235474%, 83.119202%)" stop-opacity="1"/>
<stop offset="0.886719" stop-color="rgb(47.303772%, 63.090515%, 83.052063%)" stop-opacity="1"/>
<stop offset="0.890625" stop-color="rgb(47.094727%, 62.947083%, 82.98645%)" stop-opacity="1"/>
<stop offset="0.894531" stop-color="rgb(46.885681%, 62.80365%, 82.919312%)" stop-opacity="1"/>
<stop offset="0.898438" stop-color="rgb(46.678162%, 62.660217%, 82.853699%)" stop-opacity="1"/>
<stop offset="0.902344" stop-color="rgb(46.469116%, 62.515259%, 82.78656%)" stop-opacity="1"/>
<stop offset="0.90625" stop-color="rgb(46.261597%, 62.371826%, 82.720947%)" stop-opacity="1"/>
<stop offset="0.910156" stop-color="rgb(46.052551%, 62.226868%, 82.655334%)" stop-opacity="1"/>
<stop offset="0.914062" stop-color="rgb(45.843506%, 62.083435%, 82.589722%)" stop-opacity="1"/>
<stop offset="0.917969" stop-color="rgb(45.63446%, 61.938477%, 82.522583%)" stop-opacity="1"/>
<stop offset="0.921875" stop-color="rgb(45.426941%, 61.795044%, 82.45697%)" stop-opacity="1"/>
<stop offset="0.9375" stop-color="rgb(45.262146%, 61.680603%, 82.403564%)" stop-opacity="1"/>
<stop offset="1" stop-color="rgb(45.097351%, 61.567688%, 82.351685%)" stop-opacity="1"/>
</linearGradient>
</defs>
<g clip-path="url(#clip-0)">
<path fill-rule="evenodd" fill="rgb(20.776367%, 43.138123%, 77.34375%)" fill-opacity="1" d="M 1936.488281 0 C 3001.570312 0 3872.96875 871.410156 3872.96875 1936.480469 C 3872.96875 3001.570312 3001.570312 3872.96875 1936.488281 3872.96875 C 871.414062 3872.96875 0 3001.570312 0 1936.480469 C 0 871.410156 871.414062 0 1936.488281 0 "/>
</g>
<g clip-path="url(#clip-1)">
<g clip-path="url(#clip-2)">
<path fill-rule="nonzero" fill="url(#linear-pattern-0)" d="M 694.894531 695.871094 L 694.894531 3171.039062 L 3267.941406 3171.039062 L 3267.941406 695.871094 Z M 694.894531 695.871094 "/>
</g>
</g>
</svg>
