<?xml version="1.0" encoding="UTF-8"?>
<svg xmlns="http://www.w3.org/2000/svg" xmlns:xlink="http://www.w3.org/1999/xlink" width="3600" height="3600" viewBox="0 0 3600 3600">
<defs>
<clipPath id="clip-0">
<path clip-rule="evenodd" d="M 1800 0 C 2794.109375 0 3600 805.890625 3600 1800 C 3600 2794.109375 2794.109375 3600 1800 3600 C 805.886719 3600 0 2794.109375 0 1800 C 0 805.890625 805.886719 0 1800 0 "/>
</clipPath>
<linearGradient id="linear-pattern-0" gradientUnits="userSpaceOnUse" x1="-0.194476" y1="0" x2="1.194477" y2="0" gradientTransform="matrix(2591.88, 2591.88, 2591.88, -2591.88, 504.059, 504.06)">
<stop offset="0" stop-color="rgb(93.551636%, 13.575745%, 59.576416%)" stop-opacity="1"/>
<stop offset="0.125" stop-color="rgb(93.551636%, 13.575745%, 59.576416%)" stop-opacity="1"/>
<stop offset="0.140625" stop-color="rgb(93.536377%, 13.580322%, 59.573364%)" stop-opacity="1"/>
<stop offset="0.144531" stop-color="rgb(93.312073%, 13.627625%, 59.506226%)" stop-opacity="1"/>
<stop offset="0.148438" stop-color="rgb(93.104553%, 13.671875%, 59.44519%)" stop-opacity="1"/>
<stop offset="0.15625" stop-color="rgb(92.953491%, 13.624573%, 59.347534%)" stop-opacity="1"/>
<stop offset="0.164062" stop-color="rgb(92.69104%, 13.471985%, 59.129333%)" stop-opacity="1"/>
<stop offset="0.171875" stop-color="rgb(92.463684%, 13.264465%, 58.888245%)" stop-opacity="1"/>
<stop offset="0.175781" stop-color="rgb(92.243958%, 13.156128%, 58.64563%)" stop-opacity="1"/>
<stop offset="0.179687" stop-color="rgb(92.138672%, 13.153076%, 58.520508%)" stop-opacity="1"/>
<stop offset="0.183594" stop-color="rgb(92.010498%, 13.163757%, 58.396912%)" stop-opacity="1"/>
<stop offset="0.1875" stop-color="rgb(91.880798%, 13.174438%, 58.27179%)" stop-opacity="1"/>
<stop offset="0.191406" stop-color="rgb(91.664124%, 13.088989%, 58.155823%)" stop-opacity="1"/>
<stop offset="0.195312" stop-color="rgb(91.447449%, 13.002014%, 58.039856%)" stop-opacity="1"/>
<stop offset="0.199219" stop-color="rgb(91.311646%, 12.913513%, 57.875061%)" stop-opacity="1"/>
<stop offset="0.203125" stop-color="rgb(91.174316%, 12.823486%, 57.70874%)" stop-opacity="1"/>
<stop offset="0.207031" stop-color="rgb(91.03241%, 12.739563%, 57.530212%)" stop-opacity="1"/>
<stop offset="0.210937" stop-color="rgb(90.890503%, 12.654114%, 57.350159%)" stop-opacity="1"/>
<stop offset="0.214844" stop-color="rgb(90.675354%, 12.582397%, 57.173157%)" stop-opacity="1"/>
<stop offset="0.21875" stop-color="rgb(90.460205%, 12.510681%, 56.996155%)" stop-opacity="1"/>
<stop offset="0.222656" stop-color="rgb(90.339661%, 12.533569%, 56.864929%)" stop-opacity="1"/>
<stop offset="0.226562" stop-color="rgb(90.219116%, 12.556458%, 56.732178%)" stop-opacity="1"/>
<stop offset="0.230469" stop-color="rgb(90.074158%, 12.550354%, 56.613159%)" stop-opacity="1"/>
<stop offset="0.234375" stop-color="rgb(89.929199%, 12.54425%, 56.494141%)" stop-opacity="1"/>
<stop offset="0.238281" stop-color="rgb(89.715576%, 12.461853%, 56.382751%)" stop-opacity="1"/>
<stop offset="0.242187" stop-color="rgb(89.500427%, 12.37793%, 56.272888%)" stop-opacity="1"/>
<stop offset="0.246094" stop-color="rgb(89.295959%, 12.435913%, 56.095886%)" stop-opacity="1"/>
<stop offset="0.25" stop-color="rgb(89.089966%, 12.492371%, 55.92041%)" stop-opacity="1"/>
<stop offset="0.253906" stop-color="rgb(88.885498%, 12.556458%, 55.766296%)" stop-opacity="1"/>
<stop offset="0.257812" stop-color="rgb(88.679504%, 12.62207%, 55.612183%)" stop-opacity="1"/>
<stop offset="0.261719" stop-color="rgb(88.475037%, 12.678528%, 55.493164%)" stop-opacity="1"/>
<stop offset="0.265625" stop-color="rgb(88.269043%, 12.736511%, 55.374146%)" stop-opacity="1"/>
<stop offset="0.269531" stop-color="rgb(88.056946%, 12.667847%, 55.204773%)" stop-opacity="1"/>
<stop offset="0.273437" stop-color="rgb(87.844849%, 12.600708%, 55.0354%)" stop-opacity="1"/>
<stop offset="0.277344" stop-color="rgb(87.689209%, 12.590027%, 54.890442%)" stop-opacity="1"/>
<stop offset="0.28125" stop-color="rgb(87.535095%, 12.579346%, 54.747009%)" stop-opacity="1"/>
<stop offset="0.285156" stop-color="rgb(87.420654%, 12.614441%, 54.623413%)" stop-opacity="1"/>
<stop offset="0.289062" stop-color="rgb(87.306213%, 12.64801%, 54.499817%)" stop-opacity="1"/>
<stop offset="0.292969" stop-color="rgb(86.991882%, 12.597656%, 54.335022%)" stop-opacity="1"/>
<stop offset="0.296875" stop-color="rgb(86.676025%, 12.545776%, 54.170227%)" stop-opacity="1"/>
<stop offset="0.300781" stop-color="rgb(86.489868%, 12.550354%, 54.032898%)" stop-opacity="1"/>
<stop offset="0.304687" stop-color="rgb(86.302185%, 12.554932%, 53.895569%)" stop-opacity="1"/>
<stop offset="0.308594" stop-color="rgb(86.172485%, 12.585449%, 53.762817%)" stop-opacity="1"/>
<stop offset="0.3125" stop-color="rgb(86.042786%, 12.614441%, 53.62854%)" stop-opacity="1"/>
<stop offset="0.316406" stop-color="rgb(85.72998%, 12.576294%, 53.405762%)" stop-opacity="1"/>
<stop offset="0.320312" stop-color="rgb(85.417175%, 12.539673%, 53.182983%)" stop-opacity="1"/>
<stop offset="0.324219" stop-color="rgb(85.243225%, 12.471008%, 52.998352%)" stop-opacity="1"/>
<stop offset="0.328125" stop-color="rgb(85.067749%, 12.402344%, 52.813721%)" stop-opacity="1"/>
<stop offset="0.332031" stop-color="rgb(84.941101%, 12.348938%, 52.658081%)" stop-opacity="1"/>
<stop offset="0.335938" stop-color="rgb(84.812927%, 12.297058%, 52.502441%)" stop-opacity="1"/>
<stop offset="0.339844" stop-color="rgb(84.609985%, 12.355042%, 52.389526%)" stop-opacity="1"/>
<stop offset="0.34375" stop-color="rgb(84.407043%, 12.413025%, 52.275085%)" stop-opacity="1"/>
<stop offset="0.347656" stop-color="rgb(84.199524%, 12.379456%, 52.127075%)" stop-opacity="1"/>
<stop offset="0.351562" stop-color="rgb(83.992004%, 12.345886%, 51.977539%)" stop-opacity="1"/>
<stop offset="0.355469" stop-color="rgb(83.811951%, 12.277222%, 51.817322%)" stop-opacity="1"/>
<stop offset="0.359375" stop-color="rgb(83.631897%, 12.208557%, 51.655579%)" stop-opacity="1"/>
<stop offset="0.363281" stop-color="rgb(83.526611%, 12.12616%, 51.493835%)" stop-opacity="1"/>
<stop offset="0.367188" stop-color="rgb(83.421326%, 12.045288%, 51.330566%)" stop-opacity="1"/>
<stop offset="0.371094" stop-color="rgb(83.314514%, 11.964417%, 51.168823%)" stop-opacity="1"/>
<stop offset="0.375" stop-color="rgb(83.209229%, 11.883545%, 51.00708%)" stop-opacity="1"/>
<stop offset="0.378906" stop-color="rgb(83.067322%, 11.810303%, 50.846863%)" stop-opacity="1"/>
<stop offset="0.382812" stop-color="rgb(82.925415%, 11.735535%, 50.688171%)" stop-opacity="1"/>
<stop offset="0.386719" stop-color="rgb(82.717896%, 11.676025%, 50.532532%)" stop-opacity="1"/>
<stop offset="0.390625" stop-color="rgb(82.510376%, 11.613464%, 50.378418%)" stop-opacity="1"/>
<stop offset="0.394531" stop-color="rgb(82.304382%, 11.552429%, 50.222778%)" stop-opacity="1"/>
<stop offset="0.398438" stop-color="rgb(82.096863%, 11.49292%, 50.068665%)" stop-opacity="1"/>
<stop offset="0.402344" stop-color="rgb(81.893921%, 11.485291%, 49.934387%)" stop-opacity="1"/>
<stop offset="0.40625" stop-color="rgb(81.689453%, 11.476135%, 49.80011%)" stop-opacity="1"/>
<stop offset="0.410156" stop-color="rgb(81.488037%, 11.535645%, 49.691772%)" stop-opacity="1"/>
<stop offset="0.414062" stop-color="rgb(81.286621%, 11.595154%, 49.583435%)" stop-opacity="1"/>
<stop offset="0.417969" stop-color="rgb(81.181335%, 11.532593%, 49.371338%)" stop-opacity="1"/>
<stop offset="0.421875" stop-color="rgb(81.074524%, 11.470032%, 49.159241%)" stop-opacity="1"/>
<stop offset="0.425781" stop-color="rgb(80.921936%, 11.46698%, 48.999023%)" stop-opacity="1"/>
<stop offset="0.429688" stop-color="rgb(80.769348%, 11.465454%, 48.838806%)" stop-opacity="1"/>
<stop offset="0.433594" stop-color="rgb(80.567932%, 11.520386%, 48.728943%)" stop-opacity="1"/>
<stop offset="0.4375" stop-color="rgb(80.366516%, 11.575317%, 48.61908%)" stop-opacity="1"/>
<stop offset="0.441406" stop-color="rgb(80.162048%, 11.515808%, 48.471069%)" stop-opacity="1"/>
<stop offset="0.445312" stop-color="rgb(79.957581%, 11.457825%, 48.321533%)" stop-opacity="1"/>
<stop offset="0.449219" stop-color="rgb(79.701233%, 11.390686%, 48.136902%)" stop-opacity="1"/>
<stop offset="0.453125" stop-color="rgb(79.443359%, 11.325073%, 47.952271%)" stop-opacity="1"/>
<stop offset="0.457031" stop-color="rgb(79.173279%, 11.268616%, 47.746277%)" stop-opacity="1"/>
<stop offset="0.460938" stop-color="rgb(78.900146%, 11.213684%, 47.541809%)" stop-opacity="1"/>
<stop offset="0.464844" stop-color="rgb(78.804016%, 11.265564%, 47.373962%)" stop-opacity="1"/>
<stop offset="0.46875" stop-color="rgb(78.70636%, 11.31897%, 47.206116%)" stop-opacity="1"/>
<stop offset="0.472656" stop-color="rgb(78.540039%, 11.299133%, 47.053528%)" stop-opacity="1"/>
<stop offset="0.476562" stop-color="rgb(78.372192%, 11.279297%, 46.90094%)" stop-opacity="1"/>
<stop offset="0.480469" stop-color="rgb(78.170776%, 11.224365%, 46.757507%)" stop-opacity="1"/>
<stop offset="0.484375" stop-color="rgb(77.96936%, 11.167908%, 46.614075%)" stop-opacity="1"/>
<stop offset="0.488281" stop-color="rgb(77.767944%, 11.114502%, 46.472168%)" stop-opacity="1"/>
<stop offset="0.492187" stop-color="rgb(77.566528%, 11.05957%, 46.328735%)" stop-opacity="1"/>
<stop offset="0.496094" stop-color="rgb(77.366638%, 11.088562%, 46.21582%)" stop-opacity="1"/>
<stop offset="0.5" stop-color="rgb(77.166748%, 11.117554%, 46.101379%)" stop-opacity="1"/>
<stop offset="0.503906" stop-color="rgb(76.971436%, 11.140442%, 45.954895%)" stop-opacity="1"/>
<stop offset="0.507812" stop-color="rgb(76.776123%, 11.16333%, 45.809937%)" stop-opacity="1"/>
<stop offset="0.511719" stop-color="rgb(76.58844%, 11.088562%, 45.547485%)" stop-opacity="1"/>
<stop offset="0.515625" stop-color="rgb(76.400757%, 11.013794%, 45.285034%)" stop-opacity="1"/>
<stop offset="0.519531" stop-color="rgb(76.205444%, 11.038208%, 45.198059%)" stop-opacity="1"/>
<stop offset="0.523438" stop-color="rgb(76.00708%, 11.062622%, 45.111084%)" stop-opacity="1"/>
<stop offset="0.527344" stop-color="rgb(75.814819%, 11.068726%, 44.992065%)" stop-opacity="1"/>
<stop offset="0.53125" stop-color="rgb(75.619507%, 11.074829%, 44.871521%)" stop-opacity="1"/>
<stop offset="0.535156" stop-color="rgb(75.434875%, 11.001587%, 44.615173%)" stop-opacity="1"/>
<stop offset="0.539062" stop-color="rgb(75.248718%, 10.926819%, 44.3573%)" stop-opacity="1"/>
<stop offset="0.542969" stop-color="rgb(75.05188%, 10.862732%, 44.255066%)" stop-opacity="1"/>
<stop offset="0.546875" stop-color="rgb(74.853516%, 10.797119%, 44.152832%)" stop-opacity="1"/>
<stop offset="0.550781" stop-color="rgb(74.661255%, 10.772705%, 44.038391%)" stop-opacity="1"/>
<stop offset="0.554687" stop-color="rgb(74.468994%, 10.748291%, 43.922424%)" stop-opacity="1"/>
<stop offset="0.558594" stop-color="rgb(74.285889%, 10.775757%, 43.759155%)" stop-opacity="1"/>
<stop offset="0.5625" stop-color="rgb(74.102783%, 10.801697%, 43.595886%)" stop-opacity="1"/>
<stop offset="0.566406" stop-color="rgb(74.095154%, 10.717773%, 43.449402%)" stop-opacity="1"/>
<stop offset="0.570312" stop-color="rgb(74.087524%, 10.635376%, 43.304443%)" stop-opacity="1"/>
<stop offset="0.574219" stop-color="rgb(73.950195%, 10.552979%, 43.164062%)" stop-opacity="1"/>
<stop offset="0.578125" stop-color="rgb(73.809814%, 10.470581%, 43.023682%)" stop-opacity="1"/>
<stop offset="0.582031" stop-color="rgb(73.530579%, 10.395813%, 42.886353%)" stop-opacity="1"/>
<stop offset="0.585937" stop-color="rgb(73.249817%, 10.322571%, 42.747498%)" stop-opacity="1"/>
<stop offset="0.589844" stop-color="rgb(73.068237%, 10.241699%, 42.555237%)" stop-opacity="1"/>
<stop offset="0.59375" stop-color="rgb(72.886658%, 10.159302%, 42.359924%)" stop-opacity="1"/>
<stop offset="0.597656" stop-color="rgb(72.753906%, 10.147095%, 42.219543%)" stop-opacity="1"/>
<stop offset="0.601562" stop-color="rgb(72.621155%, 10.136414%, 42.077637%)" stop-opacity="1"/>
<stop offset="0.605469" stop-color="rgb(72.515869%, 10.162354%, 41.972351%)" stop-opacity="1"/>
<stop offset="0.609375" stop-color="rgb(72.412109%, 10.189819%, 41.867065%)" stop-opacity="1"/>
<stop offset="0.617187" stop-color="rgb(72.23053%, 10.098267%, 41.729736%)" stop-opacity="1"/>
<stop offset="0.621094" stop-color="rgb(71.868896%, 9.922791%, 41.419983%)" stop-opacity="1"/>
<stop offset="0.625" stop-color="rgb(71.687317%, 9.838867%, 41.25061%)" stop-opacity="1"/>
<stop offset="0.628906" stop-color="rgb(71.507263%, 9.779358%, 41.067505%)" stop-opacity="1"/>
<stop offset="0.632812" stop-color="rgb(71.328735%, 9.719849%, 40.884399%)" stop-opacity="1"/>
<stop offset="0.636719" stop-color="rgb(71.150208%, 9.747314%, 40.730286%)" stop-opacity="1"/>
<stop offset="0.640625" stop-color="rgb(70.97168%, 9.77478%, 40.574646%)" stop-opacity="1"/>
<stop offset="0.648437" stop-color="rgb(70.793152%, 9.718323%, 40.434265%)" stop-opacity="1"/>
<stop offset="0.65625" stop-color="rgb(70.43457%, 9.603882%, 40.156555%)" stop-opacity="1"/>
<stop offset="0.660156" stop-color="rgb(70.077515%, 9.571838%, 39.865112%)" stop-opacity="1"/>
<stop offset="0.664062" stop-color="rgb(69.900513%, 9.599304%, 39.712524%)" stop-opacity="1"/>
<stop offset="0.667969" stop-color="rgb(69.726562%, 9.62677%, 39.561462%)" stop-opacity="1"/>
<stop offset="0.671875" stop-color="rgb(69.549561%, 9.65271%, 39.408875%)" stop-opacity="1"/>
<stop offset="0.675781" stop-color="rgb(69.345093%, 9.672546%, 39.256287%)" stop-opacity="1"/>
<stop offset="0.679687" stop-color="rgb(69.140625%, 9.690857%, 39.103699%)" stop-opacity="1"/>
<stop offset="0.683594" stop-color="rgb(68.8797%, 9.693909%, 38.949585%)" stop-opacity="1"/>
<stop offset="0.6875" stop-color="rgb(68.6203%, 9.695435%, 38.793945%)" stop-opacity="1"/>
<stop offset="0.695312" stop-color="rgb(68.432617%, 9.620667%, 38.66272%)" stop-opacity="1"/>
<stop offset="0.703125" stop-color="rgb(68.070984%, 9.506226%, 38.392639%)" stop-opacity="1"/>
<stop offset="0.707031" stop-color="rgb(67.721558%, 9.490967%, 38.1073%)" stop-opacity="1"/>
<stop offset="0.710937" stop-color="rgb(67.547607%, 9.516907%, 37.95929%)" stop-opacity="1"/>
<stop offset="0.714844" stop-color="rgb(67.295837%, 9.519958%, 37.808228%)" stop-opacity="1"/>
<stop offset="0.71875" stop-color="rgb(67.044067%, 9.52301%, 37.65564%)" stop-opacity="1"/>
<stop offset="0.722656" stop-color="rgb(66.827393%, 9.536743%, 37.507629%)" stop-opacity="1"/>
<stop offset="0.726562" stop-color="rgb(66.610718%, 9.54895%, 37.358093%)" stop-opacity="1"/>
<stop offset="0.730469" stop-color="rgb(66.436768%, 9.573364%, 37.210083%)" stop-opacity="1"/>
<stop offset="0.734375" stop-color="rgb(66.264343%, 9.594727%, 37.062073%)" stop-opacity="1"/>
<stop offset="0.738281" stop-color="rgb(66.011047%, 9.507751%, 36.836243%)" stop-opacity="1"/>
<stop offset="0.742188" stop-color="rgb(65.757751%, 9.420776%, 36.608887%)" stop-opacity="1"/>
<stop offset="0.75" stop-color="rgb(65.551758%, 9.388733%, 36.456299%)" stop-opacity="1"/>
<stop offset="0.757812" stop-color="rgb(65.171814%, 9.361267%, 36.198425%)" stop-opacity="1"/>
<stop offset="0.761719" stop-color="rgb(64.839172%, 9.248352%, 35.914612%)" stop-opacity="1"/>
<stop offset="0.765625" stop-color="rgb(64.678955%, 9.133911%, 35.734558%)" stop-opacity="1"/>
<stop offset="0.769531" stop-color="rgb(64.46228%, 9.098816%, 35.545349%)" stop-opacity="1"/>
<stop offset="0.773438" stop-color="rgb(64.245605%, 9.063721%, 35.357666%)" stop-opacity="1"/>
<stop offset="0.777344" stop-color="rgb(64.024353%, 9.056091%, 35.174561%)" stop-opacity="1"/>
<stop offset="0.78125" stop-color="rgb(63.801575%, 9.048462%, 34.991455%)" stop-opacity="1"/>
<stop offset="0.789063" stop-color="rgb(63.723755%, 8.94928%, 34.866333%)" stop-opacity="1"/>
<stop offset="0.792969" stop-color="rgb(63.447571%, 8.755493%, 34.584045%)" stop-opacity="1"/>
<stop offset="0.796875" stop-color="rgb(63.249207%, 8.659363%, 34.428406%)" stop-opacity="1"/>
<stop offset="0.800781" stop-color="rgb(63.021851%, 8.584595%, 34.263611%)" stop-opacity="1"/>
<stop offset="0.804688" stop-color="rgb(62.794495%, 8.509827%, 34.098816%)" stop-opacity="1"/>
<stop offset="0.808594" stop-color="rgb(62.634277%, 8.493042%, 33.94928%)" stop-opacity="1"/>
<stop offset="0.8125" stop-color="rgb(62.47406%, 8.477783%, 33.80127%)" stop-opacity="1"/>
<stop offset="0.816406" stop-color="rgb(62.309265%, 8.493042%, 33.662415%)" stop-opacity="1"/>
<stop offset="0.820313" stop-color="rgb(62.14447%, 8.506775%, 33.522034%)" stop-opacity="1"/>
<stop offset="0.824219" stop-color="rgb(61.981201%, 8.518982%, 33.381653%)" stop-opacity="1"/>
<stop offset="0.828125" stop-color="rgb(61.81488%, 8.529663%, 33.241272%)" stop-opacity="1"/>
<stop offset="0.832031" stop-color="rgb(61.656189%, 8.512878%, 33.096313%)" stop-opacity="1"/>
<stop offset="0.835938" stop-color="rgb(61.495972%, 8.496094%, 32.948303%)" stop-opacity="1"/>
<stop offset="0.84375" stop-color="rgb(61.331177%, 8.505249%, 32.849121%)" stop-opacity="1"/>
<stop offset="0.851563" stop-color="rgb(61.003113%, 8.518982%, 32.623291%)" stop-opacity="1"/>
<stop offset="0.855469" stop-color="rgb(60.682678%, 8.517456%, 32.304382%)" stop-opacity="1"/>
<stop offset="0.859375" stop-color="rgb(60.523987%, 8.508301%, 32.113647%)" stop-opacity="1"/>
<stop offset="0.875" stop-color="rgb(60.51178%, 8.508301%, 32.099915%)" stop-opacity="1"/>
<stop offset="1" stop-color="rgb(60.499573%, 8.506775%, 32.084656%)" stop-opacity="1"/>
</linearGradient>
</defs>
<g clip-path="url(#clip-0)">
<path fill-rule="nonzero" fill="url(#linear-pattern-0)" d="M -1800 1800 L 1800 -1800 L 5400 1800 L 1800 5400 Z M -1800 1800 "/>
</g>
<path fill-rule="evenodd" fill="rgb(99.876404%, 99.958801%, 99.990845%)" fill-opacity="1" d="M 2782.851562 2353.789062 L 817.160156 2353.789062 C 721.21875 2353.789062 643.160156 2275.738281 643.160156 2179.800781 L 643.160156 794.019531 C 643.160156 698.078125 721.21875 620.019531 817.148438 620.019531 L 2782.851562 620.019531 C 2878.789062 620.019531 2956.839844 698.078125 2956.839844 794.019531 L 2956.839844 2179.800781 C 2956.839844 2275.738281 2878.78125 2353.789062 2782.851562 2353.789062 Z M 817.160156 674.058594 C 751.011719 674.058594 697.199219 727.871094 697.199219 794.019531 L 697.199219 2179.800781 C 697.199219 2245.941406 751.011719 2299.761719 817.148438 2299.761719 L 2782.851562 2299.761719 C 2848.988281 2299.761719 2902.800781 2245.949219 2902.800781 2179.808594 L 2902.800781 794.03125 C 2902.800781 727.890625 2848.988281 674.078125 2782.839844 674.078125 L 817.160156 674.078125 L 817.160156 674.058594 "/>
<path fill-rule="evenodd" fill="rgb(99.876404%, 99.958801%, 99.990845%)" fill-opacity="1" d="M 2749.589844 2173.589844 L 850.371094 2173.589844 C 835.460938 2173.589844 823.351562 2161.488281 823.351562 2146.570312 L 823.351562 827.238281 C 823.351562 812.320312 835.449219 800.21875 850.371094 800.21875 L 2749.601562 800.21875 C 2764.511719 800.21875 2776.609375 812.320312 2776.609375 827.25 L 2776.621094 2146.578125 C 2776.609375 2161.488281 2764.5 2173.589844 2749.589844 2173.589844 Z M 877.390625 2119.550781 L 2722.570312 2119.550781 L 2722.570312 854.261719 L 877.390625 854.261719 L 877.390625 2119.550781 "/>
<path fill-rule="evenodd" fill="rgb(99.876404%, 99.958801%, 99.990845%)" fill-opacity="1" d="M 1906.820312 2979.980469 L 1693.140625 2979.980469 C 1678.230469 2979.980469 1666.109375 2967.878906 1666.109375 2952.960938 L 1666.121094 2326.769531 C 1666.121094 2311.839844 1678.21875 2299.75 1693.128906 2299.75 C 1708.050781 2299.75 1720.148438 2311.851562 1720.148438 2326.769531 L 1720.160156 2925.941406 L 1879.789062 2925.941406 L 1879.789062 2326.769531 C 1879.789062 2311.839844 1891.890625 2299.75 1906.808594 2299.75 C 1921.738281 2299.75 1933.828125 2311.851562 1933.828125 2326.769531 L 1933.828125 2952.960938 C 1933.839844 2967.878906 1921.730469 2979.988281 1906.820312 2979.980469 "/>
<path fill-rule="evenodd" fill="rgb(99.876404%, 99.958801%, 99.990845%)" fill-opacity="1" d="M 1222.289062 2979.980469 L 1008.609375 2979.980469 C 999.878906 2979.980469 991.710938 2975.761719 986.640625 2968.679688 C 981.578125 2961.589844 980.210938 2952.488281 983.03125 2944.289062 L 1195.730469 2318.078125 C 1200.558594 2303.941406 1215.898438 2296.378906 1230.019531 2301.191406 C 1244.140625 2305.988281 1251.691406 2321.339844 1246.910156 2335.46875 L 1046.320312 2925.941406 L 1202.898438 2925.941406 L 1409.410156 2318.078125 C 1414.238281 2303.941406 1429.570312 2296.378906 1443.699219 2301.191406 C 1457.828125 2305.988281 1465.371094 2321.339844 1460.589844 2335.46875 L 1247.851562 2961.648438 C 1244.148438 2972.621094 1233.871094 2979.988281 1222.289062 2979.980469 "/>
<path fill-rule="evenodd" fill="rgb(99.876404%, 99.958801%, 99.990845%)" fill-opacity="1" d="M 2591.359375 2979.980469 L 2377.671875 2979.980469 C 2366.128906 2979.980469 2355.808594 2972.621094 2352.101562 2961.640625 L 2139.359375 2335.460938 C 2134.578125 2321.328125 2142.128906 2305.980469 2156.25 2301.179688 C 2170.371094 2296.378906 2185.761719 2303.929688 2190.539062 2318.070312 L 2397.050781 2925.929688 L 2553.628906 2925.929688 L 2353.039062 2335.449219 C 2348.25 2321.320312 2355.800781 2305.96875 2369.921875 2301.171875 C 2384.050781 2296.371094 2399.429688 2303.921875 2404.210938 2318.058594 L 2616.949219 2944.261719 C 2619.730469 2952.46875 2618.398438 2961.570312 2613.339844 2968.660156 C 2608.25 2975.761719 2600.078125 2979.988281 2591.359375 2979.980469 "/>
<path fill-rule="evenodd" fill="rgb(99.876404%, 99.958801%, 99.990845%)" fill-opacity="1" d="M 2354.929688 1513.921875 L 1193.578125 1513.921875 C 1178.671875 1513.921875 1166.550781 1501.828125 1166.550781 1486.898438 C 1166.558594 1471.980469 1178.648438 1459.878906 1193.570312 1459.878906 L 2354.921875 1459.878906 C 2444.660156 1459.878906 2517.691406 1386.871094 2517.691406 1297.101562 C 2517.699219 1207.339844 2444.648438 1134.320312 2354.910156 1134.320312 L 1290.121094 1134.320312 C 1275.148438 1134.320312 1263.089844 1122.21875 1263.089844 1107.300781 C 1263.101562 1092.378906 1275.148438 1080.28125 1290.109375 1080.28125 L 2354.921875 1080.28125 C 2474.449219 1080.28125 2571.738281 1177.550781 2571.738281 1297.101562 C 2571.75 1416.660156 2474.449219 1513.921875 2354.929688 1513.921875 "/>
<path fill-rule="evenodd" fill="rgb(99.876404%, 99.958801%, 99.990845%)" fill-opacity="1" d="M 2309.890625 1893.53125 L 1193.578125 1893.53125 C 1074.050781 1893.53125 976.75 1796.269531 976.75 1676.710938 C 976.761719 1557.148438 1074.039062 1459.890625 1193.578125 1459.890625 L 2354.929688 1459.890625 C 2369.851562 1459.890625 2381.941406 1471.988281 2381.941406 1486.910156 C 2381.949219 1501.839844 2369.839844 1513.941406 2354.921875 1513.941406 L 1193.578125 1513.941406 C 1103.839844 1513.941406 1030.789062 1586.960938 1030.789062 1676.71875 C 1030.800781 1766.480469 1103.828125 1839.5 1193.570312 1839.5 L 2309.890625 1839.5 C 2324.800781 1839.5 2336.910156 1851.601562 2336.910156 1866.53125 C 2336.910156 1881.429688 2324.800781 1893.53125 2309.890625 1893.53125 "/>
<path fill-rule="evenodd" fill="rgb(99.876404%, 99.958801%, 99.990845%)" fill-opacity="1" d="M 1193.578125 1230.828125 C 1125.46875 1230.828125 1070.058594 1175.421875 1070.058594 1107.300781 C 1070.070312 1039.179688 1125.460938 983.769531 1193.578125 983.769531 C 1261.699219 983.769531 1317.148438 1039.179688 1317.148438 1107.300781 C 1317.148438 1175.421875 1261.691406 1230.839844 1193.578125 1230.828125 Z M 1193.578125 1037.808594 C 1155.300781 1037.808594 1124.101562 1068.988281 1124.101562 1107.300781 C 1124.109375 1145.621094 1155.300781 1176.789062 1193.578125 1176.789062 C 1231.910156 1176.789062 1263.101562 1145.621094 1263.101562 1107.300781 C 1263.101562 1068.988281 1231.898438 1037.808594 1193.578125 1037.808594 "/>
<path fill-rule="evenodd" fill="rgb(99.876404%, 99.958801%, 99.990845%)" fill-opacity="1" d="M 2406.378906 1990.03125 C 2338.269531 1990.03125 2282.859375 1934.621094 2282.859375 1866.511719 C 2282.871094 1798.390625 2338.261719 1742.980469 2406.378906 1742.980469 C 2474.511719 1742.980469 2529.898438 1798.390625 2529.898438 1866.511719 C 2529.898438 1934.621094 2474.5 1990.039062 2406.378906 1990.03125 Z M 2406.378906 1797.019531 C 2368.050781 1797.019531 2336.898438 1828.199219 2336.898438 1866.511719 C 2336.910156 1904.820312 2368.050781 1936 2406.378906 1936 C 2444.710938 1936 2475.859375 1904.828125 2475.859375 1866.511719 C 2475.859375 1828.191406 2444.710938 1797.019531 2406.378906 1797.019531 "/>
<path fill-rule="evenodd" fill="rgb(99.876404%, 99.958801%, 99.990845%)" fill-opacity="1" d="M 1988.871094 1388.859375 C 1981.96875 1388.859375 1975.019531 1386.230469 1969.769531 1380.949219 C 1959.21875 1370.390625 1959.210938 1353.289062 1969.769531 1342.738281 L 2099.25 1213.261719 C 2109.800781 1202.699219 2126.929688 1202.710938 2137.480469 1213.261719 C 2148.039062 1223.808594 2148.03125 1240.921875 2137.480469 1251.46875 L 2007.960938 1380.949219 C 2002.710938 1386.230469 1995.808594 1388.871094 1988.871094 1388.859375 "/>
<path fill-rule="evenodd" fill="rgb(99.876404%, 99.958801%, 99.990845%)" fill-opacity="1" d="M 2118.339844 1388.859375 C 2111.449219 1388.859375 2104.5 1386.230469 2099.25 1380.949219 L 1969.78125 1251.460938 C 1959.21875 1240.898438 1959.21875 1223.800781 1969.769531 1213.25 C 1980.328125 1202.699219 1997.398438 1202.699219 2007.960938 1213.25 L 2137.488281 1342.730469 C 2148.039062 1353.28125 2148.039062 1370.390625 2137.480469 1380.949219 C 2132.179688 1386.230469 2125.28125 1388.871094 2118.339844 1388.859375 "/>
<path fill-rule="evenodd" fill="rgb(99.876404%, 99.958801%, 99.990845%)" fill-opacity="1" d="M 1346.371094 1768.460938 C 1339.46875 1768.460938 1332.519531 1765.828125 1327.269531 1760.550781 C 1316.71875 1750 1316.71875 1732.890625 1327.269531 1722.328125 L 1456.75 1592.851562 C 1467.308594 1582.289062 1484.378906 1582.300781 1494.929688 1592.851562 C 1505.488281 1603.398438 1505.488281 1620.511719 1494.929688 1631.058594 L 1365.449219 1760.539062 C 1360.210938 1765.828125 1353.261719 1768.46875 1346.371094 1768.460938 "/>
<path fill-rule="evenodd" fill="rgb(99.876404%, 99.958801%, 99.990845%)" fill-opacity="1" d="M 1475.839844 1768.460938 C 1468.949219 1768.460938 1462 1765.828125 1456.738281 1760.550781 L 1327.269531 1631.070312 C 1316.71875 1620.519531 1316.710938 1603.410156 1327.261719 1592.859375 C 1337.828125 1582.300781 1354.890625 1582.308594 1365.449219 1592.859375 L 1494.929688 1722.339844 C 1505.488281 1732.890625 1505.480469 1750.011719 1494.929688 1760.558594 C 1489.679688 1765.828125 1482.738281 1768.46875 1475.839844 1768.460938 "/>
</svg>
